<svg id="レイヤー_1" data-name="レイヤー 1" xmlns="http://www.w3.org/2000/svg" viewBox="0 0 80 44.547"><title>deco-アートボード 1</title><path d="M78.027,3.554A16.175,16.175,0,0,1,79.9,9.9c.326,3.715-.075,8.755-2.32,11.9a23.417,23.417,0,0,1-3.091,3.7,9.1,9.1,0,0,1-2.1,1.8A18.991,18.991,0,0,0,69.426,29.1a55.088,55.088,0,0,1-10.871,5.984c-3.111,1.34-6.378,2.718-9.022,4.906a8.925,8.925,0,0,0-2.646,3.439c-.4.977-.227,1.143-1.349,1.113-1.174-.03-.819-1.369-.488-2.121,1.507-3.446,5.775-5.061,7.4-8.3A13.254,13.254,0,0,0,54.2,28.175c.09-2.031-2.16-4.7-1.664-4.994.558-.377,3.448,2.429,3.978,3.842.713,1.9.874,4.145-.447,5.72,1.774-1.073,3.53-1.879,5.346-2.877,1.9-1.046,4.716-2.07,5.212-4.3A17.4,17.4,0,0,0,64.9,13.307c-.562-.974-2.352-2.764-1.805-3.012.774-.392,2.542,2.02,3.239,2.945,2.459,3.26,4.225,6.422,4.248,10.433A12.118,12.118,0,0,0,75.049,19.5a17.872,17.872,0,0,0,2.021-5.744A21.334,21.334,0,0,0,75.614.968C75.056-.063,75.887-.4,76.473.6Z" fill="#9e9e9f" fill-rule="evenodd"/><path d="M1.973,3.554A16.175,16.175,0,0,0,.1,9.9c-.325,3.715.076,8.755,2.32,11.9a23.348,23.348,0,0,0,3.091,3.7,9.082,9.082,0,0,0,2.1,1.8A19.009,19.009,0,0,1,10.574,29.1a55.09,55.09,0,0,0,10.871,5.984c3.111,1.34,6.377,2.718,9.022,4.906a8.939,8.939,0,0,1,2.647,3.439c.4.977.225,1.143,1.349,1.113,1.173-.03.818-1.369.488-2.121-1.508-3.446-5.776-5.061-7.4-8.3a13.277,13.277,0,0,1-1.757-5.951c-.089-2.031,2.16-4.7,1.664-4.994-.558-.377-3.448,2.429-3.978,3.842-.713,1.9-.874,4.145.447,5.72-1.774-1.073-3.53-1.879-5.345-2.877-1.9-1.046-4.717-2.07-5.213-4.3A17.408,17.408,0,0,1,15.1,13.307c.562-.974,2.352-2.764,1.8-3.012-.774-.392-2.541,2.02-3.239,2.945-2.458,3.26-4.226,6.422-4.247,10.433A12.118,12.118,0,0,1,4.951,19.5,17.855,17.855,0,0,1,2.929,13.76,21.338,21.338,0,0,1,4.386.968C4.943-.063,4.112-.4,3.526.6Z" fill="#9e9e9f" fill-rule="evenodd"/></svg>