<svg xmlns="http://www.w3.org/2000/svg" viewBox="0 0 48 48"><title>ico-un_lock</title><g id="レイヤー_3" data-name="レイヤー 3"><path d="M48,15.632a11.233,11.233,0,1,0-22.453,0v3.973H11.126A1.355,1.355,0,0,0,9.77,20.961V42.645A1.356,1.356,0,0,0,11.126,44H36.875a1.356,1.356,0,0,0,1.356-1.355V20.961a1.355,1.355,0,0,0-1.356-1.355H29.749V15.632c0-4.236,3.019-7.431,7.024-7.431S43.8,11.4,43.8,15.632v3.973h0l0,.019a2.1,2.1,0,1,0,4.2,0l0-.019h0ZM27.048,38.523H20.531a.353.353,0,0,1-.352-.355.294.294,0,0,1,0-.058l.036-.1,0-.005,1.833-5.545.55-1.536a3.274,3.274,0,1,1,2.388.047l.534,1.489,1.838,5.56.03.082v0a.6.6,0,0,1,0,.066A.354.354,0,0,1,27.048,38.523Z" fill="#fcfbf9"/></g></svg>