<?xml version="1.0" encoding="utf-8"?>
<!-- Generator: Adobe Illustrator 19.2.1, SVG Export Plug-In . SVG Version: 6.00 Build 0)  -->
<svg version="1.1" id="レイヤー_1" xmlns="http://www.w3.org/2000/svg" xmlns:xlink="http://www.w3.org/1999/xlink" x="0px"
	 y="0px" viewBox="0 0 1355.1 378.8" style="enable-background:new 0 0 1355.1 378.8;" xml:space="preserve">
<style type="text/css">
	.st0{fill:#FCFBF9;}
	.st1{clip-path:url(#SVGID_2_);}
	.st2{fill:#FFFFFF;}
	.st3{clip-path:url(#SVGID_4_);}
	.st4{clip-path:url(#SVGID_6_);}
</style>
<g id="group" transform="translate(1256.183 725.825)">
	<path id="path-4" class="st0" d="M120-324L-58.1-535.6c-8.4-10-21.2-10-29.8,0l-178.7,212.4c-7,8.4-9.2,22-6.1,33.7
		c3.1,11.7,11.7,20.1,20.9,20.1h357.9v-0.8c12.3,0,22.3-13.7,22.3-30.1C128.4-309.8,125-318.4,120-324z"/>
	<g id="group-2">
		<g>
			<defs>
				<path id="SVGID_1_" d="M87.8-359L-61.9-536.8c-7-8.4-17.8-8.4-25.1,0l-150.2,178.5c-5.9,7-7.7,18.5-5.2,28.3
					c2.6,9.8,9.8,16.9,17.6,16.9H76.1v-0.7c10.3,0,18.7-11.5,18.7-25.3C94.9-347,92-354.3,87.8-359z"/>
			</defs>
			<clipPath id="SVGID_2_">
				<use xlink:href="#SVGID_1_"  style="overflow:visible;"/>
			</clipPath>
			<g id="group-3" class="st1">
				<path id="path-5" class="st2" d="M-249.3-355.4l90.2-13.6l51.8-54.6l-23.9-8.9l91.4-48.7l-37.7-101.4L-249.3-355.4z"/>
			</g>
		</g>
	</g>
</g>
<g id="group-4" transform="translate(662.557 751.906)">
	<path id="path-6" class="st0" d="M161.9-339.7L-60.2-576.8c-10.7-11.5-26.5-11.5-37.2,0l-222.8,238.2c-8.6,9.3-11.5,24.4-7.5,37.2
		c3.9,12.9,14.3,22.2,26.1,22.2h445.9c15.4,0,27.9-15.4,27.9-34C172.2-324,167.9-333.6,161.9-339.7z"/>
	<g id="group-5">
		<g>
			<defs>
				<path id="SVGID_3_" d="M161.9-339.7L-60.2-576.8c-10.7-11.5-26.5-11.5-37.2,0l-222.8,238.2c-8.6,9.3-11.5,24.4-7.5,37.2
					c3.9,12.9,14.3,22.2,26.1,22.2h445.9c15.4,0,27.9-15.4,27.9-34C172.2-324,167.9-333.6,161.9-339.7z"/>
			</defs>
			<clipPath id="SVGID_4_">
				<use xlink:href="#SVGID_3_"  style="overflow:visible;"/>
			</clipPath>
			<g id="group-6" class="st3">
				<path id="path-7" class="st2" d="M-190.6-481.6l44.1,45.5l50.1-69.8l30.4-4.3l-27.6-88.5L-190.6-481.6z"/>
			</g>
		</g>
	</g>
</g>
<g id="group-7" transform="translate(296 688.259)">
	<path id="path-8" class="st0" d="M299.3-263L4.2-578.4c-14-15.1-35.3-15.1-49.3,0l-295.9,316.5c-11.6,12.4-15.5,31.8-10.1,48.9
		s19.4,28.7,34.6,28.7H276c20.6,0,36.9-19.8,36.9-44.3C313.3-242.5,307.8-254.9,299.3-263z"/>
	<g id="group-8" transform="translate(0 0.363)">
		<g id="group-9">
			<g>
				<defs>
					<path id="SVGID_5_" d="M298.5-263L3.4-578.3c-14-15.1-35.3-15.1-49.3,0l-296.3,316.5c-11.7,12.4-15.5,31.5-10.1,48.9
						c5.4,17.1,19.4,28.3,34.6,28.3h592.6c20.6,0,36.9-19.8,36.9-44.3C312.2-241.6,307.4-253.9,298.5-263z"/>
				</defs>
				<clipPath id="SVGID_6_">
					<use xlink:href="#SVGID_5_"  style="overflow:visible;"/>
				</clipPath>
				<g id="group-10" class="st4">
					<path id="path-9" class="st2" d="M-66.9-568.6l37.3,96.7l15.5-30.7l182.5,85.4L-0.9-619.1L-66.9-568.6z"/>
				</g>
			</g>
		</g>
	</g>
</g>
</svg>
