<?xml version="1.0" encoding="utf-8"?>
<!-- Generator: Adobe Illustrator 20.1.0, SVG Export Plug-In . SVG Version: 6.00 Build 0)  -->
<svg version="1.1" id="レイヤー_1" xmlns="http://www.w3.org/2000/svg" xmlns:xlink="http://www.w3.org/1999/xlink" x="0px"
	 y="0px" viewBox="0 0 960 640" style="enable-background:new 0 0 960 640;" xml:space="preserve">
<style type="text/css">
	.st0{fill:#9E9E9F;}
</style>
<image style="display:none;overflow:visible;" width="2012" height="1396" xlink:href="../../Documents/hammocks_ここにページのタイトル.png"  transform="matrix(0.501 0 0 0.501 -28.8148 -18.4013)">
</image>
<g>
	<g>
		<path class="st0" d="M397.4,601.5c-3.5,1.4-5.8,4.9-6.4,9.8c-0.6,4.3,0.3,9.3,2.3,13.9c4.3,10.7,13,16.8,19.4,14.2l149.8-61
			c3.5-1.4,5.8-4.9,6.4-9.8c0.6-4.3-0.3-9.3-2.3-13.9c-2-4.9-4.9-9-8.1-11.6c-2.6-2-5.5-3.2-7.8-3.2c-1.2,0-2.3,0.3-3.5,0.6
			L397.4,601.5L397.4,601.5z M398.6,623.2c-1.4-3.8-2.3-7.8-1.7-11c0.3-2.6,1.4-4.6,2.9-5.2c1.4-0.6,3.5,0,5.5,1.7
			c2.6,2,4.9,5.5,6.4,9.3c3.2,7.8,2,15-0.9,16.2l0,0l0,0c-0.3,0-0.6,0.3-1.2,0.3C406.1,634.2,401.5,629.9,398.6,623.2z M549.3,546
			c1.4-0.6,3.5,0,5.5,1.7c2.6,2,4.9,5.5,6.4,9.3c1.4,3.8,2.3,7.8,1.7,11c-0.3,2.6-1.4,4.6-2.9,5.2l-141.4,57.6c0.9-4.3,0.3-9.5-2-15
			c-2-4.9-4.9-9-8.1-11.6c-0.3-0.3-0.6-0.3-0.9-0.6L549.3,546z"/>
		<path class="st0" d="M470,600.1c0.6,1.4,2.3,2.3,3.8,1.4l79.5-32.1c1.4-0.6,2.3-2.3,1.4-3.8c-0.6-1.2-1.4-1.7-2.6-1.7
			c-0.3,0-0.9,0-1.2,0.3l-79.2,32.1C470.3,596.9,469.4,598.6,470,600.1z"/>
		<path class="st0" d="M456.4,603c-0.3,0-0.9,0-1.2,0.3l-23.4,9.5c-1.4,0.6-2.3,2.3-1.4,3.8s2.3,2.3,3.8,1.4l23.4-9.5
			c1.4-0.6,2.3-2.3,1.4-3.8C458.7,603.5,457.6,603,456.4,603z"/>
		<path class="st0" d="M494.3,581l39.3-16.2c1.4-0.6,2.3-2.3,1.4-3.8c-0.6-1.2-1.4-1.7-2.6-1.7c-0.3,0-0.9,0-1.2,0.3L492,575.5
			c-1.4,0.6-2.3,2.3-1.4,3.8C491.1,580.7,492.9,581.6,494.3,581z"/>
		<path class="st0" d="M543.5,560.7l5.5-2c1.4-0.6,2.3-2.3,1.4-3.8c-0.6-1.2-1.4-1.7-2.6-1.7c-0.3,0-0.9,0-1.2,0.3l-5.2,2
			c-1.4,0.6-2.3,2.3-1.4,3.8C540.3,560.7,542,561.3,543.5,560.7z"/>
		<path class="st0" d="M429.8,607l48.3-19.4c1.4-0.6,2.3-2.3,1.4-3.8c-0.6-1.2-1.4-1.7-2.6-1.7c-0.3,0-0.9,0-1.2,0.3l-48,19.7
			c-1.4,0.6-2.3,2.3-1.4,3.8C427.2,607.3,428.4,607.6,429.8,607z"/>
		<path class="st0" d="M411.6,624.1c0.3-1.7-0.3-4-1.2-6.1c-0.9-1.7-1.7-3.5-2.9-4.6c-0.6-0.6-1.4-0.9-2-0.9c-0.9,0-1.4,0.3-2,0.9
			c-1.2,1.2-1.2,2.9,0,4c0.6,0.6,1.2,1.4,1.7,2.6c0.6,1.2,0.6,2.3,0.6,3.2c0,1.4,1.2,2.9,2.6,3.2C410.2,627,411.6,625.8,411.6,624.1
			z"/>
		<path class="st0" d="M562.6,601.5c-0.3,0-0.3,0-0.6-0.3c0,0,0,0-0.3,0l-24.9-10.1c-0.3-0.3-0.9-0.3-1.2-0.3
			c-1.2,0-2.3,0.6-2.6,1.7c-0.6,1.4,0,3.2,1.4,3.8l17.4,7.2c-0.3,0.3-0.6,0.3-0.9,0.6c-3.5,2.6-6.4,6.7-8.1,11.6
			c-2.3,5.5-2.9,10.7-2,15l-51.2-20.8c-0.3-0.3-0.9-0.3-1.2-0.3c-1.2,0-2.3,0.6-2.6,1.7c-0.6,1.4,0,3.2,1.4,3.8l59.6,24.3
			c6.7,2.6,15.3-3.5,19.4-14.2c2-4.9,2.6-9.8,2.3-13.9C568.1,606.4,565.8,603,562.6,601.5z M561.1,623.2c-2.9,6.9-7.5,11-11,11
			c-0.3,0-0.9,0-1.2-0.3c-3.2-1.2-4-8.4-0.9-16.2c1.4-3.8,4-7.2,6.4-9.3c2-1.7,4-2.3,5.5-1.7s2.3,2.3,2.9,5.2
			C563.4,615.1,562.9,619.2,561.1,623.2z"/>
		<path class="st0" d="M397.4,578.4l25.5,10.4c1.4,0.6,3.2,0,3.8-1.4s0-3.2-1.4-3.8l-25.5-10.4c-1.4-0.6-2.3-2.3-2.9-5.2
			c-0.3-3.2,0.3-7.2,1.7-11c1.4-3.8,3.8-7.2,6.4-9.3c2.3-2,4-2.3,4.9-2l59.3,24.3c1.4,0.6,3.2,0,3.8-1.4s0-3.2-1.4-3.8l-59.3-24.3
			c-0.9-0.3-1.7-0.6-2.9-0.6c-2.6,0-5.2,1.2-7.8,3.5c-3.2,2.6-6.1,6.9-8.1,11.6c-2,4.9-2.6,9.8-2.3,13.9
			C391.6,573.5,394,576.9,397.4,578.4z"/>
		<path class="st0" d="M407.6,563.9c-1.2,0-2.3,0.6-2.6,1.7c-0.6,1.4,0,3.2,1.4,3.8l24.3,9.8c1.4,0.6,3.2,0,3.8-1.4
			c0.6-1.4,0-3.2-1.4-3.8l-24.3-9.8C408.4,563.9,407.8,563.9,407.6,563.9z"/>
		<path class="st0" d="M505.9,603.8c-1.2,0-2.3,0.6-2.6,1.7c-0.6,1.4,0,3.2,1.4,3.8l20.5,8.4c1.4,0.6,3.2,0,3.8-1.4
			c0.6-1.4,0-3.2-1.4-3.8l-20.5-8.4C506.8,604.1,506.2,603.8,505.9,603.8z"/>
		<path class="st0" d="M448.6,574c1.4,0.6,3.2,0,3.8-1.4c0.6-1.4,0-3.2-1.4-3.8l-22.6-9.3c-0.3-0.3-0.9-0.3-1.2-0.3
			c-1.2,0-2.3,0.6-2.6,1.7c-0.6,1.4,0,3.2,1.4,3.8L448.6,574z"/>
		<path class="st0" d="M416.2,560.7c1.4,0.6,3.2,0,3.8-1.4s0-3.2-1.4-3.8l-5.2-2c-0.3-0.3-0.9-0.3-1.2-0.3c-1.2,0-2.3,0.6-2.6,1.7
			c-0.6,1.4,0,3.2,1.4,3.8L416.2,560.7z"/>
		<path class="st0" d="M529.9,607c1.4,0.6,3.2,0,3.8-1.4s0-3.2-1.4-3.8l-4.6-2c-0.3-0.3-0.9-0.3-1.2-0.3c-1.2,0-2.3,0.6-2.6,1.7
			c-0.6,1.4,0,3.2,1.4,3.8L529.9,607z"/>
		<path class="st0" d="M553.9,612.8c-0.9,0-1.4,0.3-2,0.9c-1.2,1.2-2.3,2.6-2.9,4.6c-0.9,2-1.2,4-1.2,6.1c0.3,1.7,1.4,2.9,3.2,2.6
			c1.4-0.3,2.9-1.4,2.6-3.2c0-0.9,0.3-2,0.6-3.2c0.3-1.2,1.2-2,1.7-2.6c1.2-1.2,1.2-2.9,0-4C555.6,613.1,554.8,612.8,553.9,612.8z"
			/>
	</g>
</g>
</svg>
