<svg xmlns="http://www.w3.org/2000/svg" viewBox="0 0 48 48"><title>ico-watch-on_1</title><g id="レイヤー_3" data-name="レイヤー 3"><path d="M38.357,19.091a9.642,9.642,0,1,1-9.641,9.641A9.643,9.643,0,0,1,38.357,19.091Zm5.559,9.641a5.558,5.558,0,1,0-5.559,5.557A5.559,5.559,0,0,0,43.916,28.732Z" fill="#4eb5a2"/><path d="M36.868,12.078l7.385,6.991a9.776,9.776,0,0,0-5.9-1.557c-5.084,0-7.711,2.032-9.641,5.663l-1.753,4.331V16.4c0-3.568,1.4-6.777,4.557-6.777A7.911,7.911,0,0,1,36.868,12.078Z" fill="#4eb5a2"/><path d="M25.77,17.689v6.66H22.265v-6.66Zm-.788,2.367a.965.965,0,1,0-.965.965A.965.965,0,0,0,24.982,20.056Z" fill="#4eb5a2"/><path d="M21.037,16.4V27.507l-1.753-4.331c-1.929-3.63-4.557-5.663-9.641-5.663a9.775,9.775,0,0,0-5.9,1.557l7.385-6.991A7.911,7.911,0,0,1,16.48,9.624C19.635,9.624,21.037,12.834,21.037,16.4Z" fill="#4eb5a2"/><path d="M9.643,19.091A9.642,9.642,0,1,1,0,28.732,9.643,9.643,0,0,1,9.643,19.091ZM15.2,28.732a5.558,5.558,0,1,0-5.557,5.557A5.558,5.558,0,0,0,15.2,28.732Z" fill="#4eb5a2"/></g></svg>