<svg id="レイヤー_4" data-name="レイヤー 4" xmlns="http://www.w3.org/2000/svg" viewBox="0 0 48 48"><title>ico-sp-gloval-garage</title><path d="M47.575,41.261,26.663,13.307,31.575,6.74A2.132,2.132,0,1,0,28.16,4.186L24,9.747,19.84,4.186A2.132,2.132,0,1,0,16.425,6.74l4.912,6.567L.425,41.261A2.132,2.132,0,1,0,3.84,43.815L24,16.866,44.16,43.815a2.132,2.132,0,1,0,3.415-2.554Z" fill="#9e9e9f"/><polygon points="24 34.894 29.448 44.187 40.514 44.187 24 22.112 7.486 44.187 18.553 44.187 24 34.894" fill="#9e9e9f"/></svg>