<?xml version="1.0" encoding="utf-8"?>
<!-- Generator: Adobe Illustrator 19.2.1, SVG Export Plug-In . SVG Version: 6.00 Build 0)  -->
<svg version="1.1" xmlns="http://www.w3.org/2000/svg" xmlns:xlink="http://www.w3.org/1999/xlink" x="0px" y="0px"
	 viewBox="0 0 48 48" style="enable-background:new 0 0 48 48;" xml:space="preserve">
<style type="text/css">
	.st0{display:none;fill:#9E9E9F;}
	.st1{display:none;}
	.st2{display:inline;}
	.st3{fill:#9E9E9F;}
	.st4{display:inline;fill:#9E9E9F;}
	.st5{display:inline;fill:#FFFFFF;}
	.st6{display:none;fill-rule:evenodd;clip-rule:evenodd;fill:#9E9E9F;}
	.st7{display:none;fill:#4EB5A2;}
	.st8{fill:#4EB5A2;}
	.st9{display:inline;fill:#4EB5A2;}
	.st10{display:none;fill-rule:evenodd;clip-rule:evenodd;fill:#4EB5A2;}
	.st11{display:inline;fill:#FFEC61;}
	.st12{fill:none;stroke:#4AA37A;stroke-width:4;stroke-linecap:round;stroke-linejoin:round;stroke-miterlimit:10;}
</style>
<g id="レイヤー_1">
	<path class="st0" d="M33.8,5.8c0.3,0,0.7,0,1,0c7.4,0.5,9.4,6.7,9.2,9.8c-0.2,3.1-1,6.2-4.7,10.8c-4,4.9-15,15.8-15.2,15.8
		c-0.2,0-11.3-10.9-15.2-15.8C5,21.7,4.2,18.7,4,15.6c-0.2-3.1,1.8-9.2,9.2-9.8c0.3,0,0.7,0,1,0c6.6,0,8.7,4.7,9.8,7.2
		C25.1,10.5,27.2,5.8,33.8,5.8"/>
	<g class="st1">
		<g class="st2">
			<g>
				<polygon class="st3" points="28.3,29.8 43.8,35.9 43.8,23.6 				"/>
				<polygon class="st3" points="42.6,11 24.9,4 24.9,18 				"/>
				<polygon class="st3" points="24.9,23.2 24.9,28.4 27.3,29.4 				"/>
			</g>
			<g>
				<polygon class="st3" points="4.6,23.6 4.6,35.9 20,29.8 				"/>
				<polygon class="st3" points="23.4,18 23.4,4 5.7,11 				"/>
				<polygon class="st3" points="21,29.4 23.4,28.4 23.4,23.3 				"/>
			</g>
			<polygon class="st3" points="20.7,30.1 4.6,23.6 4.6,36.6 23.4,44 23.4,23.3 			"/>
			<polygon class="st3" points="27.6,30 24.9,23.2 24.9,44 43.8,36.6 43.8,23.6 			"/>
		</g>
		<polygon class="st4" points="3.8,11.9 0.6,20.3 19.9,28 23.1,19.6 		"/>
		<polygon class="st4" points="47.4,20.5 44.2,12.1 25.2,19.5 28.5,28 		"/>
	</g>
	<g class="st1">
		<path class="st4" d="M24.4,7.2L11.4,21c-0.6,0.7-0.6,1.7,0,2.4c0.6,0.7,1.6,0.7,2.2,0L26.7,9.6c0.5-0.5,4.9-4.8,9.4,0
			c4.5,4.8,0.5,9.4,0,9.9L17.5,39.2c-0.5,0.5-3.3,3.1-6.3,0c-2.9-3.1-0.5-6,0-6.6l16.4-17.3c0.5-0.5,1.7-1.4,3.1,0
			c1.4,1.4,0.4,2.8,0,3.3l-6.3,6.7c-0.6,0.7-0.6,1.7,0,2.4c0.6,0.7,1.6,0.7,2.2,0l6.4-6.7c1.5-1.6,2.8-5.1,0-8c-2.8-2.9-6-1.6-7.6,0
			L9,30.2c-1.9,2-4.2,6.8,0,11.3c1.6,1.6,3.3,2.5,5.2,2.5c3.1,0,5.4-2.4,5.5-2.5l18.6-19.6c2.4-2.5,5.5-8.9,0-14.7
			C32.8,1.4,26.8,4.7,24.4,7.2z"/>
	</g>
	<g class="st1">
		<path class="st4" d="M92.4,3.2c-11,0-20,9-20,20s9,20,20,20h40v-40H92.4z"/>
		<circle class="st5" cx="92.4" cy="23.2" r="10"/>
	</g>
	<polygon class="st0" points="44,16.5 16.5,44 16.5,31.5 4,31.5 31.5,4 	"/>
	<polygon class="st0" points="22.8,4 34.6,4 26.2,17.8 36.1,17.3 11.9,44 23.3,24.7 14.9,24.7 	"/>
	<path class="st6" d="M27.2,10.6c0,0.6,0.1,1.1,0.2,1.7l-9.2,6.5c-1.1-0.8-2.6-1.3-4.1-1.3c-3.7,0-6.7,2.9-6.7,6.6
		c0,3.6,3,6.6,6.7,6.6c1.5,0,3-0.5,4.1-1.3l9.2,6.5c-0.1,0.5-0.2,1.1-0.2,1.7c0,3.6,3,6.6,6.8,6.6c3.7,0,6.7-2.9,6.7-6.6
		c0-3.6-3-6.6-6.7-6.6c-1.3,0-2.4,0.3-3.4,0.9l-9.7-6.9c0-0.3,0.1-0.6,0.1-0.9c0-0.3,0-0.6-0.1-0.9l9.7-6.9c1,0.6,2.2,0.9,3.4,0.9
		c3.7,0,6.7-2.9,6.7-6.6c0-3.6-3-6.6-6.7-6.6C30.2,4,27.2,6.9,27.2,10.6z"/>
	<path class="st0" d="M9.3,33.3c-2.9,0-5.3,2.4-5.3,5.3C4,41.6,6.4,44,9.3,44c2.9,0,5.3-2.4,5.3-5.3C14.7,35.7,12.3,33.3,9.3,33.3z
		 M4,17.6v7.7c5,0,9.7,2,13.2,5.5c3.5,3.5,5.5,8.2,5.5,13.3h7.7C30.4,29.4,18.6,17.6,4,17.6z M4,4v7.7c17.8,0,32.3,14.5,32.3,32.3
		H44C44,22,26.1,4,4,4z"/>
	<g class="st1">
		<g class="st2">
			<polygon class="st3" points="24.8,19.7 24.8,44 44,36.6 44,12.3 			"/>
			<polygon class="st3" points="16.8,17.2 16.8,23 16.8,23.4 10.9,21.1 10.9,20.6 10.9,15 4,12.3 4,36.6 23.2,44 23.2,19.7 			"/>
		</g>
		<g class="st2">
			<polygon class="st3" points="29.8,6.2 24,4 5.4,11.2 11.9,13.7 			"/>
			<polygon class="st3" points="35.8,8.5 17.9,16 24,18.3 42.6,11.2 			"/>
		</g>
	</g>
	<path class="st0" d="M23.7,5.7c-11,0-20,7.3-20,16.4c0,5.2,1.9,9.5,5.9,12.3c0.1,0.1,0.2,0.2,0.4,0.3c2.9,1.8-1.1,6.8-1.1,6.8
		c-0.4,0.7,0,0.9,0,0.9c2,0.5,6.9-2.7,6.9-2.7c1.8-1.3,3.7-1.9,3.7-1.9h0c0.7,0.1,1.5,0.1,2.3,0.2c11,0.4,22-6.8,22-15.8
		C43.7,13.1,34.7,5.7,23.7,5.7z"/>
</g>
<g id="レイヤー_1のコピー">
	<path class="st7" d="M33.8,5.8c0.3,0,0.7,0,1,0c7.4,0.5,9.4,6.7,9.2,9.8c-0.2,3.1-1,6.2-4.7,10.8c-4,4.9-15,15.8-15.2,15.8
		c-0.2,0-11.3-10.9-15.2-15.8C5,21.7,4.2,18.7,4,15.6c-0.2-3.1,1.8-9.2,9.2-9.8c0.3,0,0.7,0,1,0c6.6,0,8.7,4.7,9.8,7.2
		C25.1,10.5,27.2,5.8,33.8,5.8"/>
	<g class="st1">
		<g class="st2">
			<g>
				<polygon class="st8" points="28.3,29.8 43.8,35.9 43.8,23.6 				"/>
				<polygon class="st8" points="42.6,11 24.9,4 24.9,18 				"/>
				<polygon class="st8" points="24.9,23.2 24.9,28.4 27.3,29.4 				"/>
			</g>
			<g>
				<polygon class="st8" points="4.6,23.6 4.6,35.9 20,29.8 				"/>
				<polygon class="st8" points="23.4,18 23.4,4 5.7,11 				"/>
				<polygon class="st8" points="21,29.4 23.4,28.4 23.4,23.3 				"/>
			</g>
			<polygon class="st8" points="20.7,30.1 4.6,23.6 4.6,36.6 23.4,44 23.4,23.3 			"/>
			<polygon class="st8" points="27.6,30 24.9,23.2 24.9,44 43.8,36.6 43.8,23.6 			"/>
		</g>
		<polygon class="st9" points="3.8,11.9 0.6,20.3 19.9,28 23.1,19.6 		"/>
		<polygon class="st9" points="47.4,20.5 44.2,12.1 25.2,19.5 28.5,28 		"/>
	</g>
	<g class="st1">
		<path class="st9" d="M24.4,7.2L11.4,21c-0.6,0.7-0.6,1.7,0,2.4c0.6,0.7,1.6,0.7,2.2,0L26.7,9.6c0.5-0.5,4.9-4.8,9.4,0
			c4.5,4.8,0.5,9.4,0,9.9L17.5,39.2c-0.5,0.5-3.3,3.1-6.3,0c-2.9-3.1-0.5-6,0-6.6l16.4-17.3c0.5-0.5,1.7-1.4,3.1,0
			c1.4,1.4,0.4,2.8,0,3.3l-6.3,6.7c-0.6,0.7-0.6,1.7,0,2.4c0.6,0.7,1.6,0.7,2.2,0l6.4-6.7c1.5-1.6,2.8-5.1,0-8c-2.8-2.9-6-1.6-7.6,0
			L9,30.2c-1.9,2-4.2,6.8,0,11.3c1.6,1.6,3.3,2.5,5.2,2.5c3.1,0,5.4-2.4,5.5-2.5l18.6-19.6c2.4-2.5,5.5-8.9,0-14.7
			C32.8,1.4,26.8,4.7,24.4,7.2z"/>
	</g>
	<g class="st1">
		<path class="st4" d="M92.4,3.2c-11,0-20,9-20,20s9,20,20,20h40v-40H92.4z"/>
		<circle class="st5" cx="92.4" cy="23.2" r="10"/>
	</g>
	<polygon class="st7" points="44,16.5 16.5,44 16.5,31.5 4,31.5 31.5,4 	"/>
	<polygon class="st7" points="22.8,4 34.6,4 26.2,17.8 36.1,17.3 11.9,44 23.3,24.7 14.9,24.7 	"/>
	<path class="st10" d="M27.2,10.6c0,0.6,0.1,1.1,0.2,1.7l-9.2,6.5c-1.1-0.8-2.6-1.3-4.1-1.3c-3.7,0-6.7,2.9-6.7,6.6
		c0,3.6,3,6.6,6.7,6.6c1.5,0,3-0.5,4.1-1.3l9.2,6.5c-0.1,0.5-0.2,1.1-0.2,1.7c0,3.6,3,6.6,6.8,6.6c3.7,0,6.7-2.9,6.7-6.6
		c0-3.6-3-6.6-6.7-6.6c-1.3,0-2.4,0.3-3.4,0.9l-9.7-6.9c0-0.3,0.1-0.6,0.1-0.9c0-0.3,0-0.6-0.1-0.9l9.7-6.9c1,0.6,2.2,0.9,3.4,0.9
		c3.7,0,6.7-2.9,6.7-6.6c0-3.6-3-6.6-6.7-6.6C30.2,4,27.2,6.9,27.2,10.6z"/>
	<path class="st7" d="M9.3,33.3c-2.9,0-5.3,2.4-5.3,5.3C4,41.6,6.4,44,9.3,44c2.9,0,5.3-2.4,5.3-5.3C14.7,35.7,12.3,33.3,9.3,33.3z
		 M4,17.6v7.7c5,0,9.7,2,13.2,5.5c3.5,3.5,5.5,8.2,5.5,13.3h7.7C30.4,29.4,18.6,17.6,4,17.6z M4,4v7.7c17.8,0,32.3,14.5,32.3,32.3
		H44C44,22,26.1,4,4,4z"/>
	<g class="st1">
		<g class="st2">
			<polygon class="st8" points="24.8,19.7 24.8,44 44,36.6 44,12.3 			"/>
			<polygon class="st8" points="16.8,17.2 16.8,23 16.8,23.4 10.9,21.1 10.9,20.6 10.9,15 4,12.3 4,36.6 23.2,44 23.2,19.7 			"/>
		</g>
		<g class="st2">
			<polygon class="st8" points="29.8,6.2 24,4 5.4,11.2 11.9,13.7 			"/>
			<polygon class="st8" points="35.8,8.5 17.9,16 24,18.3 42.6,11.2 			"/>
		</g>
	</g>
	<path class="st8" d="M23.7,5.7c-11,0-20,7.3-20,16.4c0,5.2,1.9,9.5,5.9,12.3c0.1,0.1,0.2,0.2,0.4,0.3c2.9,1.8-1.1,6.8-1.1,6.8
		c-0.4,0.7,0,0.9,0,0.9c2,0.5,6.9-2.7,6.9-2.7c1.8-1.3,3.7-1.9,3.7-1.9h0c0.7,0.1,1.5,0.1,2.3,0.2c11,0.4,22-6.8,22-15.8
		C43.7,13.1,34.7,5.7,23.7,5.7z"/>
</g>
<g id="レイヤー_3">
	<g class="st1">
		<circle class="st11" cx="24" cy="24" r="23"/>
		<g class="st2">
			<line class="st12" x1="13.6" y1="17" x2="34.4" y2="17"/>
			<line class="st12" x1="13.6" y1="24" x2="34.4" y2="24"/>
			<line class="st12" x1="13.6" y1="31" x2="34.4" y2="31"/>
		</g>
	</g>
	<path class="st7" d="M39.8,47.2l-36-17.9c-3.6-1.8-3.7-6.9-0.2-8.8l36-19.6C43-0.9,47,1.5,47,5.2v37.5C47,46.5,43.1,48.9,39.8,47.2
		z"/>
</g>
</svg>
