<svg xmlns="http://www.w3.org/2000/svg" viewBox="0 0 48 48"><title>ico-watch-off</title><g id="レイヤー_3" data-name="レイヤー 3"><polygon points="22.394 16.715 21.721 23.117 26.28 23.117 25.606 16.715 22.394 16.715" fill="#9e9e9f"/><path d="M14.713,4.221c-4.133,0-7.485,2.618-7.485,6.752L1.336,29.457a9.948,9.948,0,1,0,18.569,4.959,9.911,9.911,0,0,0-.286-2.328l1.3-8.971.673-6.4.6-5.742C22.2,6.839,18.846,4.221,14.713,4.221ZM9.952,41.369a6.952,6.952,0,1,1,6.953-6.953A6.961,6.961,0,0,1,9.952,41.369Z" fill="#9e9e9f"/><path d="M46.58,29.194,40.771,10.973c0-4.133-3.352-6.752-7.484-6.752S25.8,6.839,25.8,10.973l.6,5.742.672,6.4,1.291,8.89a9.951,9.951,0,1,0,18.21-2.812ZM45,34.292a6.953,6.953,0,1,1-6.953-6.952A6.961,6.961,0,0,1,45,34.292Z" fill="#9e9e9f"/></g></svg>