<?xml version="1.0" encoding="utf-8"?>
<!-- Generator: Adobe Illustrator 19.2.1, SVG Export Plug-In . SVG Version: 6.00 Build 0)  -->
<svg version="1.1" id="レイヤー_1" xmlns="http://www.w3.org/2000/svg" xmlns:xlink="http://www.w3.org/1999/xlink" x="0px"
	 y="0px" viewBox="0 0 48 48" style="enable-background:new 0 0 48 48;" xml:space="preserve">
<style type="text/css">
	.st0{display:none;fill:#FFFFFF;}
	.st1{display:none;}
	.st2{display:inline;}
	.st3{fill:#FFFFFF;}
	.st4{display:inline;fill:#FFFFFF;}
</style>
<g id="レイヤー_1_1_">
	<path class="st0" d="M33.8,5.8c0.3,0,0.7,0,1,0c7.4,0.5,9.4,6.7,9.2,9.8c-0.2,3.1-1,6.2-4.7,10.8c-4,4.9-15,15.8-15.2,15.8
		S12.8,31.3,8.9,26.4C5,21.7,4.2,18.7,4,15.6c-0.2-3.1,1.8-9.2,9.2-9.8c0.3,0,0.7,0,1,0c6.6,0,8.7,4.7,9.8,7.2
		C25.1,10.5,27.2,5.8,33.8,5.8"/>
	<g class="st1">
		<g class="st2">
			<g>
				<polygon class="st3" points="28.3,29.8 43.8,35.9 43.8,23.6 				"/>
				<polygon class="st3" points="42.6,11 24.9,4 24.9,18 				"/>
				<polygon class="st3" points="24.9,23.2 24.9,28.4 27.3,29.4 				"/>
			</g>
			<g>
				<polygon class="st3" points="4.6,23.6 4.6,35.9 20,29.8 				"/>
				<polygon class="st3" points="23.4,18 23.4,4 5.7,11 				"/>
				<polygon class="st3" points="21,29.4 23.4,28.4 23.4,23.3 				"/>
			</g>
			<polygon class="st3" points="20.7,30.1 4.6,23.6 4.6,36.6 23.4,44 23.4,23.3 			"/>
			<polygon class="st3" points="27.6,30 24.9,23.2 24.9,44 43.8,36.6 43.8,23.6 			"/>
		</g>
		<polygon class="st4" points="3.8,11.9 0.6,20.3 19.9,28 23.1,19.6 		"/>
		<polygon class="st4" points="47.4,20.5 44.2,12.1 25.2,19.5 28.5,28 		"/>
	</g>
	<g class="st1">
		<path class="st4" d="M24.4,7.2L11.4,21c-0.6,0.7-0.6,1.7,0,2.4c0.6,0.7,1.6,0.7,2.2,0L26.7,9.6c0.5-0.5,4.9-4.8,9.4,0
			s0.5,9.4,0,9.9L17.5,39.2c-0.5,0.5-3.3,3.1-6.3,0c-2.9-3.1-0.5-6,0-6.6l16.4-17.3c0.5-0.5,1.7-1.4,3.1,0s0.4,2.8,0,3.3l-6.3,6.7
			c-0.6,0.7-0.6,1.7,0,2.4c0.6,0.7,1.6,0.7,2.2,0L33,21c1.5-1.6,2.8-5.1,0-8s-6-1.6-7.6,0L9,30.2c-1.9,2-4.2,6.8,0,11.3
			c1.6,1.6,3.3,2.5,5.2,2.5c3.1,0,5.4-2.4,5.5-2.5l18.6-19.6c2.4-2.5,5.5-8.9,0-14.7S26.8,4.7,24.4,7.2z"/>
	</g>
	<polygon class="st0" points="22.8,4 34.6,4 26.2,17.8 36.1,17.3 11.9,44 23.3,24.7 14.9,24.7 	"/>
	<path class="st0" d="M27.2,10.6c0,0.6,0.1,1.1,0.2,1.7l-9.2,6.5c-1.1-0.8-2.6-1.3-4.1-1.3c-3.7,0-6.7,2.9-6.7,6.6
		c0,3.6,3,6.6,6.7,6.6c1.5,0,3-0.5,4.1-1.3l9.2,6.5c-0.1,0.5-0.2,1.1-0.2,1.7c0,3.6,3,6.6,6.8,6.6c3.7,0,6.7-2.9,6.7-6.6
		c0-3.6-3-6.6-6.7-6.6c-1.3,0-2.4,0.3-3.4,0.9L20.9,25c0-0.3,0.1-0.6,0.1-0.9s0-0.6-0.1-0.9l9.7-6.9c1,0.6,2.2,0.9,3.4,0.9
		c3.7,0,6.7-2.9,6.7-6.6C40.7,7,37.7,4,34,4C30.2,4,27.2,6.9,27.2,10.6z"/>
	<path class="st0" d="M9.3,33.3c-2.9,0-5.3,2.4-5.3,5.3c0,3,2.4,5.4,5.3,5.4s5.3-2.4,5.3-5.3C14.7,35.7,12.3,33.3,9.3,33.3z M4,17.6
		v7.7c5,0,9.7,2,13.2,5.5s5.5,8.2,5.5,13.3h7.7C30.4,29.4,18.6,17.6,4,17.6z M4,4v7.7c17.8,0,32.3,14.5,32.3,32.3H44
		C44,22,26.1,4,4,4z"/>
	<g class="st1">
		<g class="st2">
			<polygon class="st3" points="24.8,19.7 24.8,44 44,36.6 44,12.3 			"/>
			<polygon class="st3" points="16.8,17.2 16.8,23 16.8,23.4 10.9,21.1 10.9,20.6 10.9,15 4,12.3 4,36.6 23.2,44 23.2,19.7 			"/>
		</g>
		<g class="st2">
			<polygon class="st3" points="29.8,6.2 24,4 5.4,11.2 11.9,13.7 			"/>
			<polygon class="st3" points="35.8,8.5 17.9,16 24,18.3 42.6,11.2 			"/>
		</g>
	</g>
	<path class="st0" d="M23.7,5.7c-11,0-20,7.3-20,16.4c0,5.2,1.9,9.5,5.9,12.3c0.1,0.1,0.2,0.2,0.4,0.3c2.9,1.8-1.1,6.8-1.1,6.8
		c-0.4,0.7,0,0.9,0,0.9c2,0.5,6.9-2.7,6.9-2.7c1.8-1.3,3.7-1.9,3.7-1.9l0,0c0.7,0.1,1.5,0.1,2.3,0.2c11,0.4,22-6.8,22-15.8
		C43.7,13.1,34.7,5.7,23.7,5.7z"/>
	<g class="st1">
		<path class="st4" d="M42,29.2c0.4,0.5,1.1,0.8,1.7,0.9c1.4-5-1.6-10.3-6.6-11.7C32.2,17,27,19.7,25.3,24.5
			C31,20.9,38.1,24.8,42,29.2"/>
		<path class="st4" d="M37.5,11.1c0.6-0.1,1.2-0.5,1.6-1c-3.5-3.5-9.2-3.8-13-0.6c-4.1,3.4-4.5,9.7-1.1,13.6
			C24.8,16.4,31.7,12.2,37.5,11.1"/>
		<path class="st4" d="M19.5,5.9c0.2-0.6,0.2-1.3-0.1-1.9c-4.8,1.3-7.9,6.1-7,10.9c0.9,5.2,6.1,8.7,11.3,7.7
			C17.8,19.5,17.6,11.4,19.5,5.9"/>
		<path class="st4" d="M6,18.8C5.6,18.3,5,18,4.3,18C3,22.9,6,28.2,10.9,29.7c4.9,1.4,10.1-1.3,11.7-6.1C17,27.1,9.9,23.2,6,18.8"/>
		<path class="st4" d="M10.5,36.9c-0.6,0.1-1.2,0.5-1.6,1c3.5,3.5,9.2,3.8,13,0.6c4.1-3.4,4.5-9.7,1.1-13.6
			C23.2,31.6,16.3,35.8,10.5,36.9"/>
		<path class="st4" d="M28.5,42.1c-0.2,0.6-0.2,1.3,0.1,1.9c4.8-1.3,7.9-6.1,7-10.9c-0.9-5.2-6.1-8.7-11.3-7.7
			C30.2,28.5,30.4,36.6,28.5,42.1"/>
	</g>
	<path class="st0" d="M24,5.9C14,5.9,5.9,14,5.9,24S14,42.1,24,42.1S42.1,34,42.1,24S34,5.9,24,5.9z M24,11.2c2.6,0,5,0.8,7,2.1
		C24.9,19.5,16.7,27.7,13.3,31c-1.3-2-2.1-4.4-2.1-7C11.2,17,17,11.2,24,11.2z M24,36.8c-2.5,0-4.9-0.8-6.9-2
		C20.9,31,28.9,23,34.7,17.1c1.3,2,2.1,4.4,2.1,6.9C36.8,31,31,36.8,24,36.8z"/>
	<g>
		<path id="path" class="st3" d="M30.6,30.4v-3.5c0,0-4.8,5.9-4.8,8.4c0,2.3,4.8,8.4,4.8,8.4v-3.5h4.8c1.2,0,2.3-0.6,2.9-1.6
			l5.8-10.3c-0.9,1.5-2.5,2.4-4.2,2.3L30.6,30.4L30.6,30.4z"/>
		<path id="path-2" class="st3" d="M33.9,7.3c-0.6-1.2-1.9-2-3.3-2c-1.4,0-2.6,0.8-3.3,2c0,0-1.2,2-2.1,3.9l2.1,3.9l-3.1,1.7
			c0,0,7.5,1.2,9.4,0c2.1-1.2,4.8-8.4,4.8-8.4l-2.9,1.8C35.7,10.2,34.5,8.1,33.9,7.3z"/>
		<path id="path-3" class="st3" d="M43.2,27.4c0.6-1.2,0.6-2.5,0-3.7c0,0-2.3-4.1-4.2-7.4L30.8,21l4.8,8.4H40
			C41.4,29.4,42.6,28.6,43.2,27.4z"/>
		<path id="path-3_1_" class="st3" d="M11,38.1c0.7,1.1,1.9,1.8,3.2,1.8c0,0,4.7,0,8.5,0v-9.4H13l-2.2,3.8
			C10.2,35.6,10.2,37,11,38.1z"/>
		<path id="path-4" class="st3" d="M15,25.5l3.1,1.8c0,0-2.7-7-4.8-8.4c-2.1-1-9.4,0.2-9.4,0.2L7,20.9L4.5,25c-0.6,1-0.6,2.3,0,3.3
			l5.8,10.3c-0.8-1.5-0.8-3.3,0-4.9L15,25.5z"/>
		<path id="path-6" class="st3" d="M11.2,14.7l8.1,4.7c0,0,6.2-10.7,7.3-12.7c0.8-1.5,2.4-2.4,4-2.3H19.1c-1.2,0.1-2.3,0.7-2.9,1.8
			C15.2,7.7,11.2,14.7,11.2,14.7z"/>
	</g>
</g>
</svg>
