<svg id="レイヤー_4" data-name="レイヤー 4" xmlns="http://www.w3.org/2000/svg" viewBox="0 0 48 48"><title>ico-img-white</title>
<path d="M38.283,8.813H9.717a5.4,5.4,0,0,0-5.4,5.4V33.781a5.405,5.405,0,0,0,5.4,5.406H38.283a5.407,5.407,0,0,0,5.4-5.406V14.217A5.406,5.406,0,0,0,38.283,8.813Zm2.763,24.968a2.736,2.736,0,0,1-.365,1.345L31.563,24.9,25.8,31.383,15,22.019,6.954,31.8V14.217a2.766,2.766,0,0,1,2.763-2.762H38.283a2.766,2.766,0,0,1,2.763,2.762Z" fill="#fff"/>
<circle cx="34.444" cy="18.418" r="4.682" fill="#fff"/>

</svg>