<svg id="レイヤー_4" data-name="レイヤー 4" xmlns="http://www.w3.org/2000/svg" viewBox="0 0 48 48"><title>ico-master-photo</title><path id="_複合パス_" data-name="&lt;複合パス&gt;" d="M47.513,33.391H45.24L36.129,21.24a.515.515,0,0,0-.8,0l-2.508,3.345L24.739,13.8a.515.515,0,0,0-.8,0l-5.417,7.224c-.007.006-.015.008-.022.014a.485.485,0,0,0-.085.128l-1.5,2-2.6-3.468a.515.515,0,0,0-.8,0L3.259,33.391H.487a.5.5,0,0,0,0,.995H47.513a.5.5,0,0,0,0-.995ZM24.341,14.929l4.585,6.115-2.174,2.174-2.4-2.4a.5.5,0,0,0-.7,0L21.32,23.152l-1.8-1.8Zm-10.417,5.9L16.3,23.994l-7.046,9.4H4.5ZM10.5,33.391,18.92,22.159l2.048,2.048a.5.5,0,0,0,.7,0L24,21.875l2.4,2.4a.5.5,0,0,0,.7,0l2.425-2.425,8.655,11.543Zm28.928,0-5.981-7.977,2.285-3.047L44,33.391Z" fill="#9e9e9f"/></svg>