<svg id="レイヤー_4" data-name="レイヤー 4" xmlns="http://www.w3.org/2000/svg" viewBox="0 0 48 48"><title>ico-pick-off</title><path id="_複合パス_" data-name="&lt;複合パス&gt;" d="M43.534,27a13.4,13.4,0,0,0-16.21,9.443l-2.433,1.452V30.458l2.392-2.392a13.424,13.424,0,0,0,13.125-13.4.673.673,0,0,0-.673-.673,13.424,13.424,0,0,0-13.4,13.126l-1.441,1.441V22.1a13.4,13.4,0,0,0-.2-18.759.672.672,0,0,0-.951,0,13.4,13.4,0,0,0-.2,18.759v6.5l-1.488-1.488a13.424,13.424,0,0,0-13.4-13.126.673.673,0,0,0-.673.673,13.424,13.424,0,0,0,13.125,13.4l2.44,2.44v7.223L20.92,36.161A13.425,13.425,0,0,0,4.71,26.718a.672.672,0,0,0-.487.817,13.374,13.374,0,0,0,16.006,9.781L23.4,39.21a.669.669,0,0,0,.141.06v3.205a.673.673,0,1,0,1.345,0V39.46L28.016,37.6a13.485,13.485,0,0,0,3.032.353A13.417,13.417,0,0,0,44.022,27.815.672.672,0,0,0,43.534,27Z" fill="#4eb5a2"/></svg>