<svg id="レイヤー_4" data-name="レイヤー 4" xmlns="http://www.w3.org/2000/svg" viewBox="0 0 48 48"><title>ico-follower</title>
<rect x="14.15" y="38.55" width="9.314" height="2.373" fill="#9e9e9f"/>
<polygon points="14.15 33.938 14.15 38.486 23.738 28.897 17.947 28.897 25.669 21.175 21.808 21.175 26.732 16.25 23.464 12.982 28.12 12.982 18.807 3.668 9.493 12.982 14.15 12.982 4.836 22.296 11.821 22.296 0.179 33.938 14.15 33.938" fill="#9e9e9f"/>
<polygon points="48 37.52 38.347 27.867 44.139 27.867 36.417 20.145 40.278 20.145 32.556 12.422 24.833 20.145 28.694 20.145 20.972 27.867 26.764 27.867 17.111 37.52 28.694 37.52 28.694 43.311 36.417 43.311 36.417 37.52 48 37.52" fill="#9e9e9f"/>
</svg>