<?xml version="1.0" encoding="utf-8"?>
<!-- Generator: Adobe Illustrator 19.2.1, SVG Export Plug-In . SVG Version: 6.00 Build 0)  -->
<svg version="1.1" xmlns="http://www.w3.org/2000/svg" xmlns:xlink="http://www.w3.org/1999/xlink" x="0px" y="0px"
	 viewBox="0 0 48 48" style="enable-background:new 0 0 48 48;" xml:space="preserve">
<style type="text/css">
	.st0{display:none;}
	.st1{display:inline;fill:#9E9E9F;}
	.st2{display:inline;fill:#FFFFFF;}
	.st3{fill:#9E9E9F;}
	.st4{display:inline;}
	.st5{display:none;fill:#9E9E9F;}
	.st6{display:none;fill-rule:evenodd;clip-rule:evenodd;fill:#9E9E9F;}
	.st7{display:none;fill:#4EB5A2;}
	.st8{fill:#4EB5A2;}
	.st9{display:inline;fill:#4EB5A2;}
	.st10{display:none;fill-rule:evenodd;clip-rule:evenodd;fill:#4EB5A2;}
	.st11{display:inline;fill:#FFEC61;}
	.st12{fill:none;stroke:#4AA37A;stroke-width:4;stroke-linecap:round;stroke-linejoin:round;stroke-miterlimit:10;}
</style>
<g id="レイヤー_4" class="st0">
	<g>
		<path class="st1" d="M39,9H9c-2.7,0-5,2.3-5,5v20c0,2.7,2.3,5,5,5h30c2.7,0,5-2.3,5-5V14C44,11.3,41.7,9,39,9z M41.5,34
			c0,1.4-1.1,2.5-2.5,2.5H9c-1.4,0-2.5-1.1-2.5-2.5V21.5h35V34z M41.5,16.5h-35V14c0-1.4,1.1-2.5,2.5-2.5h30c1.4,0,2.5,1.1,2.5,2.5
			V16.5z"/>
		<rect x="9" y="24" class="st1" width="15" height="2.5"/>
		<rect x="9" y="29" class="st1" width="5" height="2.5"/>
		<rect x="31.5" y="24" class="st1" width="7.5" height="5"/>
	</g>
	<g>
		<path class="st1" d="M92.4,3.2c-11,0-20,9-20,20s9,20,20,20h40v-40H92.4z"/>
		<circle class="st2" cx="92.4" cy="23.2" r="10"/>
	</g>
	<polygon class="st3" points="44,16.5 16.5,44 16.5,31.5 4,31.5 31.5,4 	"/>
	<g>
		<path class="st1" d="M38.3,8.8H9.7c-3,0-5.4,2.4-5.4,5.4v19.6c0,3,2.4,5.4,5.4,5.4h28.6c3,0,5.4-2.4,5.4-5.4V14.2
			C43.7,11.2,41.3,8.8,38.3,8.8z M9.7,11.5h28.6c1.5,0,2.8,1.2,2.8,2.8v19.6c0,0.5-0.1,0.9-0.4,1.3l-9.1-10.2l-5.8,6.5L15,22l-8,9.8
			V14.2C7,12.7,8.2,11.5,9.7,11.5z"/>
		<circle class="st1" cx="34.4" cy="18.4" r="4.7"/>
	</g>
	<polygon class="st3" points="0,35.3 14.9,17.2 19.3,22.8 29.1,10.1 48,35.3 	"/>
	<path id="XMLID_22_" class="st3" d="M47.5,33.4h-2.3l-9.1-12.2c-0.2-0.3-0.6-0.3-0.8,0l-2.5,3.3l-8.1-10.8c-0.2-0.3-0.6-0.3-0.8,0
		L18.5,21c0,0,0,0,0,0c0,0-0.1,0.1-0.1,0.1l-1.5,2l-2.6-3.5c-0.2-0.3-0.6-0.3-0.8,0L3.3,33.4H0.5c-0.3,0-0.5,0.2-0.5,0.5
		c0,0.3,0.2,0.5,0.5,0.5h3h6h0h29.6h0H45h2.5c0.3,0,0.5-0.2,0.5-0.5C48,33.6,47.8,33.4,47.5,33.4z M24.3,14.9l4.6,6.1l-2.2,2.2
		l-2.4-2.4c-0.2-0.2-0.5-0.2-0.7,0l-2.3,2.3l-1.8-1.8L24.3,14.9z M13.9,20.8l2.4,3.2l-7,9.4H4.5L13.9,20.8z M10.5,33.4l8.4-11.2l2,2
		c0.2,0.2,0.5,0.2,0.7,0l2.3-2.3l2.4,2.4c0.1,0.1,0.2,0.1,0.4,0.1c0.1,0,0.3,0,0.4-0.1l2.4-2.4l8.7,11.5H10.5z M39.4,33.4l-6-8
		l2.3-3l8.3,11H39.4z"/>
	<g id="XMLID_4_">
		<path id="XMLID_573_" class="st1" d="M38.4,31.8l-8.2-8.2l7.3-7.3c0.7-0.7,0.9-1.6,0.8-2.7c-0.2-1-0.7-2-1.5-2.8
			C35.1,9,32.7,8.7,31.3,10L24,17.3L16.7,10C16,9.3,15.1,9.1,14,9.2c-1,0.2-2,0.7-2.8,1.5c-1.7,1.7-2.1,4.2-0.8,5.5l7.3,7.3
			l-8.2,8.2c-0.7,0.7-0.9,1.6-0.8,2.7c0.2,1,0.7,2,1.5,2.8c0.8,0.8,1.8,1.3,2.8,1.5c0.2,0,0.4,0,0.6,0c0.8,0,1.5-0.3,2.1-0.8
			l8.2-8.2l8.2,8.2c0.5,0.5,1.2,0.8,2.1,0.8c0.2,0,0.4,0,0.6,0c1-0.2,2-0.7,2.8-1.5s1.3-1.8,1.5-2.8C39.4,33.4,39.1,32.4,38.4,31.8z
			 M32.9,37.3c-0.9-0.9-0.6-2.7,0.8-4c1.3-1.3,3.1-1.7,4-0.8c0.9,0.9,0.6,2.7-0.8,4C35.6,37.9,33.8,38.2,32.9,37.3z M24.7,29.1
			l0.5-0.5l4.6,4.6c0.1,0.1,0.2,0.2,0.4,0.2c0.1,0,0.3-0.1,0.4-0.2c0.2-0.2,0.2-0.5,0-0.7l-4.6-4.6l0.9-0.9l0.9,0.9
			c0.1,0.1,0.2,0.2,0.4,0.2c0.1,0,0.3-0.1,0.4-0.2c0.2-0.2,0.2-0.5,0-0.7l-0.9-0.9l0.9-0.9c0,0.2,0,0.3,0.1,0.4l4.9,4.9
			c0.1,0.1,0.2,0.2,0.4,0.2c0.1,0,0.3-0.1,0.4-0.2c0.2-0.2,0.2-0.5,0-0.7l-4.9-4.9C29.2,25,29,24.9,28.8,25l0.7-0.7l6.7,6.7
			c-1.1,0.1-2.3,0.6-3.2,1.5c-0.8,0.8-1.3,1.8-1.5,2.8c0,0.1,0,0.3,0,0.4L24.7,29.1z M16.6,35.8c-0.1-1.1-0.6-2.3-1.5-3.2
			c-1-1-2.2-1.5-3.2-1.5l6.7-6.7l0.4-0.4l0.4-0.4l0.7-0.7l0.4-0.4l0.4-0.4l0.6-0.6l0.4-0.4l0.4-0.4l2-2l0.4-0.4l0.4-0.4l7.3-7.3
			c0.9-0.9,2.7-0.6,4,0.8c0.7,0.7,1.1,1.5,1.2,2.3c0.1,0.7,0,1.4-0.5,1.8l-7.3,7.3l-0.4,0.4l-0.4,0.4l-2,2l-0.4,0.4l-0.4,0.4
			l-0.9,0.9l-0.4,0.4l-0.4,0.4L24,28.4l-0.4,0.4l-0.4,0.4L16.6,35.8z M11.1,15.5L11.1,15.5c-0.9-0.9-0.6-2.7,0.8-4
			c0.7-0.7,1.5-1.1,2.3-1.2c0.7-0.1,1.4,0,1.8,0.5l0,0l7.3,7.3l-0.5,0.5l-6.8-6.8c-0.2-0.2-0.5-0.2-0.7,0c-0.2,0.2-0.2,0.5,0,0.7
			l6.8,6.8L21.3,20l-1.9-1.9c-0.2-0.2-0.5-0.2-0.7,0c-0.2,0.2-0.2,0.5,0,0.7l1.9,1.9l-0.6,0.6l-6.6-6.6c-0.2-0.2-0.5-0.2-0.7,0
			c-0.2,0.2-0.2,0.5,0,0.7l6.6,6.6l-0.7,0.7L11.1,15.5z M11,36.5c-1.3-1.3-1.7-3.1-0.8-4l0,0c0.3-0.3,0.8-0.5,1.3-0.5
			c0.9,0,1.9,0.4,2.7,1.3c1.3,1.3,1.7,3.1,0.8,4l0,0C14.2,38.2,12.4,37.8,11,36.5z"/>
		<path id="XMLID_578_" class="st1" d="M13.2,13.4l3.1,3.1c0.1,0.1,0.2,0.2,0.4,0.2s0.3-0.1,0.4-0.2c0.2-0.2,0.2-0.5,0-0.7L14,12.7
			l-0.3-0.3c-0.2-0.2-0.5-0.2-0.7,0c-0.2,0.2-0.2,0.5,0,0.7L13.2,13.4z"/>
		<path id="XMLID_579_" class="st1" d="M31.9,32c0.1,0,0.3-0.1,0.4-0.2c0.2-0.2,0.2-0.5,0-0.7l-1.8-1.8c-0.2-0.2-0.5-0.2-0.7,0
			c-0.2,0.2-0.2,0.5,0,0.7l1.8,1.8C31.7,32,31.8,32,31.9,32z"/>
		<path id="XMLID_582_" class="st1" d="M35.5,32.8c-0.5,0.1-1,0.4-1.4,0.8c-0.4,0.4-0.7,0.9-0.8,1.4c-0.1,0.6,0.1,1.1,0.4,1.5
			c0.3,0.3,0.7,0.4,1.1,0.4c0.1,0,0.2,0,0.3,0c0.5-0.1,1-0.4,1.4-0.8c0.4-0.4,0.7-0.9,0.8-1.4c0.1-0.6-0.1-1.1-0.4-1.5
			C36.6,32.8,36.1,32.7,35.5,32.8z M35.1,35.9c-0.1,0-0.4,0-0.6-0.1c-0.2-0.2-0.2-0.4-0.1-0.6c0-0.3,0.2-0.6,0.5-0.9
			c0.3-0.3,0.6-0.4,0.9-0.5c0,0,0.1,0,0.2,0c0.1,0,0.3,0,0.4,0.1c0.2,0.2,0.2,0.4,0.1,0.6c0,0.3-0.2,0.6-0.5,0.9
			S35.4,35.8,35.1,35.9z"/>
		<path id="XMLID_583_" class="st1" d="M20.1,25.1l0.4-0.4l0.9-0.9c0.1,0,0.1-0.1,0.2-0.1c0.1-0.1,0.1-0.1,0.1-0.2l0.6-0.6
			c0.1-0.1,0.1-0.2,0.1-0.4c0-0.1,0-0.3-0.1-0.4c-0.1-0.1-0.2-0.2-0.4-0.1c-0.1,0-0.3,0.1-0.4,0.1l-0.4,0.4L20.8,23l-0.4,0.4
			l-0.7,0.7l-0.4,0.4L19,24.8l-4.6,4.6c-0.2,0.2-0.2,0.5,0,0.7c0.1,0.1,0.2,0.2,0.4,0.2s0.3-0.1,0.4-0.2l4.6-4.6L20.1,25.1z"/>
		<path id="XMLID_584_" class="st1" d="M24.5,23.9l0.4-0.4l0.7-0.7l0.4-0.4l0.4-0.4l0.5-0.5l0.4-0.4l0.4-0.4l1.9-1.9
			c0.2-0.2,0.2-0.5,0-0.7c-0.2-0.2-0.5-0.2-0.7,0l-1.9,1.9l-0.4,0.4l-0.4,0.4l-0.5,0.5l-0.4,0.4l-0.4,0.4l-0.7,0.7l-0.4,0.4
			l-0.4,0.4l-2.1,2.1L20.9,26l-0.4,0.4l-0.9,0.9c-0.2,0.2-0.2,0.5,0,0.7c0.1,0.1,0.2,0.2,0.4,0.2s0.3-0.1,0.4-0.2l0.9-0.9l0.4-0.4
			l0.4-0.4l0.5-0.5l0.7-0.7l0.9-0.9L24.5,23.9z"/>
		<path id="XMLID_585_" class="st1" d="M24.2,21.3c0.1,0,0.1,0,0.2,0c0.1,0,0.1-0.1,0.2-0.1l0.2-0.2l0.7-0.7l0.4-0.4l0.4-0.4
			l6.6-6.6c0.2-0.2,0.2-0.5,0-0.7c-0.2-0.2-0.5-0.2-0.7,0l-6.6,6.6l-0.4,0.4l-0.4,0.4l-0.9,0.9c-0.2,0.2-0.2,0.5,0,0.7
			C23.9,21.2,24.1,21.3,24.2,21.3z"/>
		<path id="XMLID_586_" class="st1" d="M31,16.7c0.1,0.1,0.2,0.2,0.4,0.2c0.1,0,0.3-0.1,0.4-0.2l3.5-3.5c0.2-0.2,0.2-0.5,0-0.7
			c-0.2-0.2-0.5-0.2-0.7,0L31,16C30.8,16.2,30.8,16.5,31,16.7z"/>
		<path id="XMLID_587_" class="st1" d="M22.5,28.1C22.4,28,22.3,28,22.2,28c-0.2,0-0.3,0-0.4,0.1l-4.9,4.9c-0.2,0.2-0.2,0.5,0,0.7
			c0.1,0.1,0.2,0.2,0.4,0.2c0.1,0,0.3-0.1,0.4-0.2l4.9-4.9c0.1-0.1,0.2-0.3,0.1-0.4C22.6,28.3,22.6,28.2,22.5,28.1z"/>
		<path id="XMLID_588_" class="st1" d="M24.1,27c0.1,0,0.2,0,0.2-0.1c0,0,0.1,0,0.1-0.1l0.3-0.3l0.9-0.9l0.4-0.4l0.4-0.4l0.2-0.2
			c0.2-0.2,0.2-0.5,0-0.7c-0.2-0.2-0.5-0.2-0.7,0l-0.2,0.2l-0.4,0.4L24.8,25L24,25.9l-0.3,0.3c0,0-0.1,0.1-0.1,0.1
			c-0.1,0.2-0.1,0.4,0.1,0.6C23.8,27,23.9,27,24.1,27z"/>
		<path id="XMLID_589_" class="st1" d="M28.3,21.6l-0.2,0.2C28,21.9,28,21.9,28,22c-0.1,0.2,0,0.4,0.1,0.5c0.1,0.1,0.2,0.2,0.4,0.2
			c0,0,0.1,0,0.1,0c0.1,0,0.2-0.1,0.2-0.1l0.2-0.2l6.8-6.8c0.2-0.2,0.2-0.5,0-0.7c-0.2-0.2-0.5-0.2-0.7,0L28.3,21.6z"/>
		<path id="XMLID_590_" class="st1" d="M18.2,29.3c-0.2-0.2-0.5-0.2-0.7,0l-1.8,1.8c-0.2,0.2-0.2,0.5,0,0.7C15.8,32,16,32,16.1,32
			c0.1,0,0.3-0.1,0.4-0.2l1.8-1.8C18.4,29.9,18.4,29.5,18.2,29.3z"/>
		<path id="XMLID_593_" class="st1" d="M14,33.7c-0.4-0.4-0.9-0.7-1.4-0.8c-0.6-0.1-1.1,0.1-1.5,0.4l0,0c-0.4,0.4-0.5,0.9-0.4,1.5
			c0.1,0.5,0.4,1,0.8,1.4c0.4,0.4,0.9,0.7,1.4,0.8c0.1,0,0.2,0,0.3,0c0.4,0,0.9-0.2,1.1-0.4l0,0c0.4-0.4,0.5-0.9,0.4-1.5
			C14.7,34.6,14.4,34.1,14,33.7z M13.1,36c-0.3,0-0.6-0.2-0.9-0.5c-0.3-0.3-0.4-0.6-0.5-0.9c0-0.1,0-0.4,0.1-0.6l0,0
			c0.1-0.1,0.3-0.1,0.4-0.1c0.1,0,0.1,0,0.2,0c0.3,0,0.6,0.2,0.9,0.5c0.3,0.3,0.4,0.6,0.5,0.9c0,0.1,0,0.4-0.1,0.6l0,0
			C13.5,36,13.2,36,13.1,36z"/>
	</g>
	<g>
		<path class="st1" d="M40.3,13.3h-4.9l-1.1-3.8H26l-1.1,3.8h-8.2c0,1-0.8,1.7-1.7,1.7h-3.4c-1,0-1.7-0.8-1.7-1.7H8.3
			c-1.5,0-2.8,1.3-2.8,2.8v19.5c0,1.5,1.2,2.8,2.8,2.8h32c1.5,0,2.8-1.3,2.8-2.8V16.1C43.1,14.6,41.9,13.3,40.3,13.3z M13.8,19.5
			h-3.5c-0.9,0-1.5-0.7-1.5-1.5c0-0.8,0.7-1.5,1.5-1.5h3.5c0.8,0,1.5,0.7,1.5,1.5C15.3,18.9,14.6,19.5,13.8,19.5z M28.3,35.9
			c-5.5,0-10-4.5-10-10c0-5.5,4.5-10,10-10c5.5,0,10,4.5,10,10C38.3,31.4,33.8,35.9,28.3,35.9z"/>
		<circle class="st1" cx="28.3" cy="25.9" r="6.1"/>
		<path class="st1" d="M11.6,14.5H15c0.7,0,1.2-0.5,1.2-1.2c0-0.7-0.5-1.2-1.2-1.2h-3.4c-0.7,0-1.2,0.5-1.2,1.2
			C10.4,14,11,14.5,11.6,14.5z"/>
	</g>
	<path id="XMLID_126_" class="st3" d="M39.5,27.1c-2.8-0.7-5.7-0.3-8.1,1.2c-2.4,1.4-4.1,3.7-4.8,6.4l-1.9,1.2v-5.9l1.9-1.9
		C32.3,27.8,37,23,37,17.2c0-0.3-0.2-0.5-0.5-0.5c-5.8,0-10.6,4.7-10.7,10.5l-1.2,1.2v-5.2c1.9-2,3-4.6,3-7.4c0-2.9-1.1-5.6-3.1-7.6
		c-0.2-0.2-0.6-0.2-0.8,0c-2,2-3.1,4.7-3.1,7.6c0,2.8,1.1,5.4,3,7.4v5.2l-1.2-1.2c-0.1-5.8-4.9-10.5-10.7-10.5
		c-0.3,0-0.5,0.2-0.5,0.5c0,5.8,4.7,10.6,10.5,10.7l2,2v5.8l-2.1-1.3c-1.5-5.6-7.3-9-13-7.6c-0.1,0-0.3,0.1-0.3,0.2
		c-0.1,0.1-0.1,0.3-0.1,0.4c1.2,4.9,5.6,8.1,10.4,8.1c0.8,0,1.6-0.1,2.4-0.3l2.5,1.5c0,0,0.1,0,0.1,0v2.6c0,0.3,0.2,0.5,0.5,0.5
		s0.5-0.2,0.5-0.5V37l2.5-1.5c0.8,0.2,1.6,0.3,2.4,0.3c1.9,0,3.8-0.5,5.5-1.5c2.5-1.5,4.2-3.8,4.9-6.6C40,27.4,39.8,27.2,39.5,27.1z
		 M35.9,17.8c-0.3,4.6-3.8,8.3-8.2,9l3.5-3.5c0.2-0.2,0.2-0.6,0-0.8c-0.2-0.2-0.6-0.2-0.8,0L26.9,26C27.6,21.5,31.3,18,35.9,17.8z
		 M9.3,27.8c4.5-0.9,9,1.6,10.7,5.8L15.8,31c-0.3-0.2-0.6-0.1-0.7,0.2c-0.2,0.3-0.1,0.6,0.2,0.7l4.2,2.5C15,34.9,10.7,32.2,9.3,27.8
		z M21.6,15.7c0-2.4,0.9-4.7,2.4-6.4c1.6,1.8,2.4,4,2.4,6.4c0,2.1-0.7,4.1-1.9,5.8v-4.9c0-0.3-0.2-0.5-0.5-0.5s-0.5,0.2-0.5,0.5v4.9
		C22.3,19.9,21.6,17.8,21.6,15.7z M12.2,17.8c4.6,0.3,8.3,3.8,9,8.2l-3.5-3.5c-0.2-0.2-0.6-0.2-0.8,0c-0.2,0.2-0.2,0.6,0,0.8
		l3.5,3.5C15.9,26.1,12.4,22.4,12.2,17.8z M34.5,33.4c-1.8,1.1-3.9,1.5-5.9,1.3l4.2-2.5c0.3-0.2,0.3-0.5,0.2-0.7
		c-0.2-0.3-0.5-0.3-0.7-0.2L28,33.8c0.8-1.9,2.2-3.5,4-4.6c2.1-1.2,4.4-1.6,6.8-1.2C38,30.3,36.5,32.2,34.5,33.4z"/>
	<path class="st1" d="M42,8.7c-0.3-0.3-0.6-0.4-1-0.4H17.2c-0.4,0-0.7,0.1-1,0.4c-0.3,0.3-0.4,0.6-0.4,1v4.4h-3.7
		c-0.4,0-0.9,0.1-1.4,0.3c-0.5,0.2-0.9,0.4-1.2,0.7L5,19.8c-0.2,0.2-0.4,0.4-0.5,0.7c-0.1,0.3-0.3,0.5-0.3,0.7C4,21.4,4,21.7,4,22
		c0,0.4-0.1,0.6-0.1,0.8c0,0.2,0,0.5,0,0.9c0,0.4,0,0.7,0,0.8v7.4c-0.4,0-0.7,0.1-1,0.4c-0.3,0.3-0.4,0.6-0.4,1c0,0.2,0,0.4,0.1,0.6
		c0.1,0.2,0.2,0.3,0.3,0.4c0.1,0.1,0.3,0.2,0.4,0.3c0.1,0.1,0.3,0.1,0.5,0.1c0.3,0,0.4,0,0.5,0c0.1,0,0.3,0,0.6,0c0.3,0,0.5,0,0.5,0
		h1.5c0,1.6,0.6,3,1.7,4.2c1.2,1.2,2.6,1.7,4.2,1.7c1.6,0,3-0.6,4.2-1.7c1.2-1.2,1.7-2.6,1.7-4.2h8.9c0,1.6,0.6,3,1.7,4.2
		c1.2,1.2,2.6,1.7,4.2,1.7c1.6,0,3-0.6,4.2-1.7c1.2-1.2,1.7-2.6,1.7-4.2c0,0,0.2,0,0.5,0c0.3,0,0.5,0,0.6,0c0.1,0,0.3,0,0.5,0
		c0.3,0,0.4-0.1,0.5-0.1c0.1-0.1,0.2-0.2,0.4-0.3c0.1-0.1,0.2-0.3,0.3-0.4c0.1-0.2,0.1-0.4,0.1-0.6V9.7C42.4,9.3,42.3,9,42,8.7z
		 M14.9,37c-0.6,0.6-1.3,0.9-2.1,0.9c-0.8,0-1.5-0.3-2.1-0.9c-0.6-0.6-0.9-1.3-0.9-2.1c0-0.8,0.3-1.5,0.9-2.1
		c0.6-0.6,1.3-0.9,2.1-0.9c0.8,0,1.5,0.3,2.1,0.9c0.6,0.6,0.9,1.3,0.9,2.1C15.8,35.7,15.5,36.4,14.9,37z M15.8,23H6.9v-0.7
		c0-0.2,0.1-0.4,0.2-0.5l4.5-4.5c0.1-0.1,0.3-0.2,0.5-0.2h3.7V23z M35.6,37c-0.6,0.6-1.3,0.9-2.1,0.9c-0.8,0-1.5-0.3-2.1-0.9
		c-0.6-0.6-0.9-1.3-0.9-2.1c0-0.8,0.3-1.5,0.9-2.1c0.6-0.6,1.3-0.9,2.1-0.9c0.8,0,1.5,0.3,2.1,0.9c0.6,0.6,0.9,1.3,0.9,2.1
		C36.5,35.7,36.2,36.4,35.6,37z"/>
	<g class="st4">
		<path class="st3" d="M43.3,37.3L25.9,14L30,8.5c0.6-0.8,0.4-1.9-0.4-2.5c-0.8-0.6-1.9-0.4-2.5,0.4L23.7,11l-3.5-4.6
			c-0.6-0.8-1.7-0.9-2.5-0.4c-0.8,0.6-0.9,1.7-0.4,2.5l4.1,5.5L4,37.3c-0.6,0.8-0.4,1.9,0.4,2.5c0.8,0.6,1.9,0.4,2.5-0.4l16.8-22.5
			l16.8,22.5c0.6,0.8,1.7,0.9,2.5,0.4C43.8,39.2,43.9,38.1,43.3,37.3z"/>
		<polygon class="st3" points="23.7,32 28.2,39.7 37.4,39.7 23.7,21.3 9.9,39.7 19.1,39.7 		"/>
	</g>
	<polygon class="st1" points="43.1,34.5 30.6,22 38.1,22 28.1,12 33.1,12 23.1,2 13.1,12 18.1,12 8.1,22 15.6,22 3.1,34.5 
		18.1,34.5 18.1,42 28.1,42 28.1,34.5 	"/>
	<g class="st4">
		<path class="st3" d="M4.8,30.7l4.8,1.5l11-2.7L6.3,25c-0.8-0.2-1.6-0.1-2.2,0.4c-0.6,0.5-1,1.2-1,2v1C3.1,29.4,3.8,30.4,4.8,30.7z
			"/>
		<path class="st3" d="M41.3,35.9L41,35.8l-11.1,2.8l10,3.1c0.8,0.2,1.6,0.1,2.2-0.4c0.6-0.5,1-1.2,1-2v-1
			C43.1,37.2,42.3,36.2,41.3,35.9z"/>
		<path class="st3" d="M42.1,27.7c-0.4-0.3-1-0.5-1.5-0.5l-0.6,0.1L4.9,36c-1.1,0.3-1.9,1.3-1.9,2.4v1.1c0,0.8,0.4,1.5,1,2
			C4.5,41.8,5,42,5.6,42l0.6-0.1l35-8.8c1.1-0.3,1.9-1.3,1.9-2.4v-1.1C43.1,28.9,42.7,28.1,42.1,27.7z"/>
		<path class="st3" d="M16.8,22c2.1,4.8,10,7.5,14.1,1.7c4-5.8,0.5-15.2-6.6-21.7C25.5,8.7,12,11.4,16.8,22z M21,19.5
			c1.1-1.2,3.8-2.6,4.1-7.6c5.9,4,3.3,13.6-1.1,12.8C19.6,23.9,19.9,20.7,21,19.5z"/>
	</g>
	<path class="st1" d="M36.8,17.3c0,0-1.7,0.1-5.7,2.3l-0.3-0.4c0.1-3,0.4-6.7,1.3-9c-0.5,0.3-2.4,1.8-4.5,3.5
		c-1.1-2.7-1.5-7.7-0.2-10.5c-10.3,7.4-16.4,17.9-16.4,24.5c0,5.1-0.7,12.9,11.7,12.9C42.1,40.7,32.1,26.7,36.8,17.3z M24.2,37
		c-14,0.4-5.1-13.3-6.6-10.5c-0.2,0.4-1.2,3.6,3.7,6.2c-2.4-3,2-6.7,3.6-8.4c0,4.3,1.8,8.4,1.8,8.4s2.8-1.7,4.9-7.7
		C33.4,32.7,32,36.8,24.2,37z"/>
</g>
<g id="レイヤー_1">
	<path class="st5" d="M33.8,5.8c0.3,0,0.7,0,1,0c7.4,0.5,9.4,6.7,9.2,9.8c-0.2,3.1-1,6.2-4.7,10.8c-4,4.9-15,15.8-15.2,15.8
		c-0.2,0-11.3-10.9-15.2-15.8C5,21.7,4.2,18.7,4,15.6c-0.2-3.1,1.8-9.2,9.2-9.8c0.3,0,0.7,0,1,0c6.6,0,8.7,4.7,9.8,7.2
		C25.1,10.5,27.2,5.8,33.8,5.8"/>
	<g class="st0">
		<g class="st4">
			<g>
				<polygon class="st3" points="28.3,29.8 43.8,35.9 43.8,23.6 				"/>
				<polygon class="st3" points="42.6,11 24.9,4 24.9,18 				"/>
				<polygon class="st3" points="24.9,23.2 24.9,28.4 27.3,29.4 				"/>
			</g>
			<g>
				<polygon class="st3" points="4.6,23.6 4.6,35.9 20,29.8 				"/>
				<polygon class="st3" points="23.4,18 23.4,4 5.7,11 				"/>
				<polygon class="st3" points="21,29.4 23.4,28.4 23.4,23.3 				"/>
			</g>
			<polygon class="st3" points="20.7,30.1 4.6,23.6 4.6,36.6 23.4,44 23.4,23.3 			"/>
			<polygon class="st3" points="27.6,30 24.9,23.2 24.9,44 43.8,36.6 43.8,23.6 			"/>
		</g>
		<polygon class="st1" points="3.8,11.9 0.6,20.3 19.9,28 23.1,19.6 		"/>
		<polygon class="st1" points="47.4,20.5 44.2,12.1 25.2,19.5 28.5,28 		"/>
	</g>
	<g class="st0">
		<path class="st1" d="M24.4,7.2L11.4,21c-0.6,0.7-0.6,1.7,0,2.4c0.6,0.7,1.6,0.7,2.2,0L26.7,9.6c0.5-0.5,4.9-4.8,9.4,0
			c4.5,4.8,0.5,9.4,0,9.9L17.5,39.2c-0.5,0.5-3.3,3.1-6.3,0c-2.9-3.1-0.5-6,0-6.6l16.4-17.3c0.5-0.5,1.7-1.4,3.1,0
			c1.4,1.4,0.4,2.8,0,3.3l-6.3,6.7c-0.6,0.7-0.6,1.7,0,2.4c0.6,0.7,1.6,0.7,2.2,0l6.4-6.7c1.5-1.6,2.8-5.1,0-8c-2.8-2.9-6-1.6-7.6,0
			L9,30.2c-1.9,2-4.2,6.8,0,11.3c1.6,1.6,3.3,2.5,5.2,2.5c3.1,0,5.4-2.4,5.5-2.5l18.6-19.6c2.4-2.5,5.5-8.9,0-14.7
			C32.8,1.4,26.8,4.7,24.4,7.2z"/>
	</g>
	<polygon class="st5" points="22.8,4 34.6,4 26.2,17.8 36.1,17.3 11.9,44 23.3,24.7 14.9,24.7 	"/>
	<path class="st6" d="M27.2,10.6c0,0.6,0.1,1.1,0.2,1.7l-9.2,6.5c-1.1-0.8-2.6-1.3-4.1-1.3c-3.7,0-6.7,2.9-6.7,6.6
		c0,3.6,3,6.6,6.7,6.6c1.5,0,3-0.5,4.1-1.3l9.2,6.5c-0.1,0.5-0.2,1.1-0.2,1.7c0,3.6,3,6.6,6.8,6.6c3.7,0,6.7-2.9,6.7-6.6
		c0-3.6-3-6.6-6.7-6.6c-1.3,0-2.4,0.3-3.4,0.9l-9.7-6.9c0-0.3,0.1-0.6,0.1-0.9c0-0.3,0-0.6-0.1-0.9l9.7-6.9c1,0.6,2.2,0.9,3.4,0.9
		c3.7,0,6.7-2.9,6.7-6.6c0-3.6-3-6.6-6.7-6.6C30.2,4,27.2,6.9,27.2,10.6z"/>
	<path class="st5" d="M9.3,33.3c-2.9,0-5.3,2.4-5.3,5.3C4,41.6,6.4,44,9.3,44c2.9,0,5.3-2.4,5.3-5.3C14.7,35.7,12.3,33.3,9.3,33.3z
		 M4,17.6v7.7c5,0,9.7,2,13.2,5.5c3.5,3.5,5.5,8.2,5.5,13.3h7.7C30.4,29.4,18.6,17.6,4,17.6z M4,4v7.7c17.8,0,32.3,14.5,32.3,32.3
		H44C44,22,26.1,4,4,4z"/>
	<g class="st0">
		<g class="st4">
			<polygon class="st3" points="24.8,19.7 24.8,44 44,36.6 44,12.3 			"/>
			<polygon class="st3" points="16.8,17.2 16.8,23 16.8,23.4 10.9,21.1 10.9,20.6 10.9,15 4,12.3 4,36.6 23.2,44 23.2,19.7 			"/>
		</g>
		<g class="st4">
			<polygon class="st3" points="29.8,6.2 24,4 5.4,11.2 11.9,13.7 			"/>
			<polygon class="st3" points="35.8,8.5 17.9,16 24,18.3 42.6,11.2 			"/>
		</g>
	</g>
	<path class="st5" d="M23.7,5.7c-11,0-20,7.3-20,16.4c0,5.2,1.9,9.5,5.9,12.3c0.1,0.1,0.2,0.2,0.4,0.3c2.9,1.8-1.1,6.8-1.1,6.8
		c-0.4,0.7,0,0.9,0,0.9c2,0.5,6.9-2.7,6.9-2.7c1.8-1.3,3.7-1.9,3.7-1.9h0c0.7,0.1,1.5,0.1,2.3,0.2c11,0.4,22-6.8,22-15.8
		C43.7,13.1,34.7,5.7,23.7,5.7z"/>
	<g class="st0">
		<path class="st1" d="M42,29.2c0.4,0.5,1.1,0.8,1.7,0.9c1.4-5-1.6-10.3-6.6-11.7c-4.9-1.4-10.1,1.3-11.8,6.1
			C31,20.9,38.1,24.8,42,29.2"/>
		<path class="st1" d="M37.5,11.1c0.6-0.1,1.2-0.5,1.6-1c-3.5-3.5-9.2-3.8-13-0.6c-4.1,3.4-4.5,9.7-1.1,13.6
			C24.8,16.4,31.7,12.2,37.5,11.1"/>
		<path class="st1" d="M19.5,5.9c0.2-0.6,0.2-1.3-0.1-1.9c-4.8,1.3-7.9,6.1-7,10.9c0.9,5.2,6.1,8.7,11.3,7.7
			C17.8,19.5,17.6,11.4,19.5,5.9"/>
		<path class="st1" d="M6,18.8C5.6,18.3,5,18,4.3,18C3,22.9,6,28.2,10.9,29.7c4.9,1.4,10.1-1.3,11.7-6.1C17,27.1,9.9,23.2,6,18.8"/>
		<path class="st1" d="M10.5,36.9c-0.6,0.1-1.2,0.5-1.6,1c3.5,3.5,9.2,3.8,13,0.6c4.1-3.4,4.5-9.7,1.1-13.6
			C23.2,31.6,16.3,35.8,10.5,36.9"/>
		<path class="st1" d="M28.5,42.1c-0.2,0.6-0.2,1.3,0.1,1.9c4.8-1.3,7.9-6.1,7-10.9c-0.9-5.2-6.1-8.7-11.3-7.7
			C30.2,28.5,30.4,36.6,28.5,42.1"/>
	</g>
	<path class="st5" d="M24,5.9C14,5.9,5.9,14,5.9,24S14,42.1,24,42.1S42.1,34,42.1,24S34,5.9,24,5.9z M24,11.2c2.6,0,5,0.8,7,2.1
		C24.9,19.5,16.7,27.7,13.3,31c-1.3-2-2.1-4.4-2.1-7C11.2,17,17,11.2,24,11.2z M24,36.8c-2.5,0-4.9-0.8-6.9-2
		C20.9,31,28.9,23,34.7,17.1c1.3,2,2.1,4.4,2.1,6.9C36.8,31,31,36.8,24,36.8z"/>
</g>
<g id="レイヤー_1のコピー">
	<path class="st7" d="M33.8,5.8c0.3,0,0.7,0,1,0c7.4,0.5,9.4,6.7,9.2,9.8c-0.2,3.1-1,6.2-4.7,10.8c-4,4.9-15,15.8-15.2,15.8
		c-0.2,0-11.3-10.9-15.2-15.8C5,21.7,4.2,18.7,4,15.6c-0.2-3.1,1.8-9.2,9.2-9.8c0.3,0,0.7,0,1,0c6.6,0,8.7,4.7,9.8,7.2
		C25.1,10.5,27.2,5.8,33.8,5.8"/>
	<g class="st0">
		<g class="st4">
			<g>
				<polygon class="st8" points="28.3,29.8 43.8,35.9 43.8,23.6 				"/>
				<polygon class="st8" points="42.6,11 24.9,4 24.9,18 				"/>
				<polygon class="st8" points="24.9,23.2 24.9,28.4 27.3,29.4 				"/>
			</g>
			<g>
				<polygon class="st8" points="4.6,23.6 4.6,35.9 20,29.8 				"/>
				<polygon class="st8" points="23.4,18 23.4,4 5.7,11 				"/>
				<polygon class="st8" points="21,29.4 23.4,28.4 23.4,23.3 				"/>
			</g>
			<polygon class="st8" points="20.7,30.1 4.6,23.6 4.6,36.6 23.4,44 23.4,23.3 			"/>
			<polygon class="st8" points="27.6,30 24.9,23.2 24.9,44 43.8,36.6 43.8,23.6 			"/>
		</g>
		<polygon class="st9" points="3.8,11.9 0.6,20.3 19.9,28 23.1,19.6 		"/>
		<polygon class="st9" points="47.4,20.5 44.2,12.1 25.2,19.5 28.5,28 		"/>
	</g>
	<g class="st0">
		<path class="st9" d="M24.4,7.2L11.4,21c-0.6,0.7-0.6,1.7,0,2.4c0.6,0.7,1.6,0.7,2.2,0L26.7,9.6c0.5-0.5,4.9-4.8,9.4,0
			c4.5,4.8,0.5,9.4,0,9.9L17.5,39.2c-0.5,0.5-3.3,3.1-6.3,0c-2.9-3.1-0.5-6,0-6.6l16.4-17.3c0.5-0.5,1.7-1.4,3.1,0
			c1.4,1.4,0.4,2.8,0,3.3l-6.3,6.7c-0.6,0.7-0.6,1.7,0,2.4c0.6,0.7,1.6,0.7,2.2,0l6.4-6.7c1.5-1.6,2.8-5.1,0-8c-2.8-2.9-6-1.6-7.6,0
			L9,30.2c-1.9,2-4.2,6.8,0,11.3c1.6,1.6,3.3,2.5,5.2,2.5c3.1,0,5.4-2.4,5.5-2.5l18.6-19.6c2.4-2.5,5.5-8.9,0-14.7
			C32.8,1.4,26.8,4.7,24.4,7.2z"/>
	</g>
	<g class="st0">
		<path class="st1" d="M92.4,3.2c-11,0-20,9-20,20s9,20,20,20h40v-40H92.4z"/>
		<circle class="st2" cx="92.4" cy="23.2" r="10"/>
	</g>
	<polygon class="st7" points="44,16.5 16.5,44 16.5,31.5 4,31.5 31.5,4 	"/>
	<polygon class="st7" points="22.8,4 34.6,4 26.2,17.8 36.1,17.3 11.9,44 23.3,24.7 14.9,24.7 	"/>
	<path class="st10" d="M27.2,10.6c0,0.6,0.1,1.1,0.2,1.7l-9.2,6.5c-1.1-0.8-2.6-1.3-4.1-1.3c-3.7,0-6.7,2.9-6.7,6.6
		c0,3.6,3,6.6,6.7,6.6c1.5,0,3-0.5,4.1-1.3l9.2,6.5c-0.1,0.5-0.2,1.1-0.2,1.7c0,3.6,3,6.6,6.8,6.6c3.7,0,6.7-2.9,6.7-6.6
		c0-3.6-3-6.6-6.7-6.6c-1.3,0-2.4,0.3-3.4,0.9l-9.7-6.9c0-0.3,0.1-0.6,0.1-0.9c0-0.3,0-0.6-0.1-0.9l9.7-6.9c1,0.6,2.2,0.9,3.4,0.9
		c3.7,0,6.7-2.9,6.7-6.6c0-3.6-3-6.6-6.7-6.6C30.2,4,27.2,6.9,27.2,10.6z"/>
	<path class="st7" d="M9.3,33.3c-2.9,0-5.3,2.4-5.3,5.3C4,41.6,6.4,44,9.3,44c2.9,0,5.3-2.4,5.3-5.3C14.7,35.7,12.3,33.3,9.3,33.3z
		 M4,17.6v7.7c5,0,9.7,2,13.2,5.5c3.5,3.5,5.5,8.2,5.5,13.3h7.7C30.4,29.4,18.6,17.6,4,17.6z M4,4v7.7c17.8,0,32.3,14.5,32.3,32.3
		H44C44,22,26.1,4,4,4z"/>
	<g class="st0">
		<g class="st4">
			<polygon class="st8" points="24.8,19.7 24.8,44 44,36.6 44,12.3 			"/>
			<polygon class="st8" points="16.8,17.2 16.8,23 16.8,23.4 10.9,21.1 10.9,20.6 10.9,15 4,12.3 4,36.6 23.2,44 23.2,19.7 			"/>
		</g>
		<g class="st4">
			<polygon class="st8" points="29.8,6.2 24,4 5.4,11.2 11.9,13.7 			"/>
			<polygon class="st8" points="35.8,8.5 17.9,16 24,18.3 42.6,11.2 			"/>
		</g>
	</g>
	<path class="st7" d="M23.7,5.7c-11,0-20,7.3-20,16.4c0,5.2,1.9,9.5,5.9,12.3c0.1,0.1,0.2,0.2,0.4,0.3c2.9,1.8-1.1,6.8-1.1,6.8
		c-0.4,0.7,0,0.9,0,0.9c2,0.5,6.9-2.7,6.9-2.7c1.8-1.3,3.7-1.9,3.7-1.9h0c0.7,0.1,1.5,0.1,2.3,0.2c11,0.4,22-6.8,22-15.8
		C43.7,13.1,34.7,5.7,23.7,5.7z"/>
	<g class="st0">
		<path class="st9" d="M42,29.2c0.4,0.5,1.1,0.8,1.7,0.9c1.4-5-1.6-10.3-6.6-11.7c-4.9-1.4-10.1,1.3-11.8,6.1
			C31,20.9,38.1,24.8,42,29.2"/>
		<path class="st9" d="M37.5,11.1c0.6-0.1,1.2-0.5,1.6-1c-3.5-3.5-9.2-3.8-13-0.6c-4.1,3.4-4.5,9.7-1.1,13.6
			C24.8,16.4,31.7,12.2,37.5,11.1"/>
		<path class="st9" d="M19.5,5.9c0.2-0.6,0.2-1.3-0.1-1.9c-4.8,1.3-7.9,6.1-7,10.9c0.9,5.2,6.1,8.7,11.3,7.7
			C17.8,19.5,17.6,11.4,19.5,5.9"/>
		<path class="st9" d="M6,18.8C5.6,18.3,5,18,4.3,18C3,22.9,6,28.2,10.9,29.7c4.9,1.4,10.1-1.3,11.7-6.1C17,27.1,9.9,23.2,6,18.8"/>
		<path class="st9" d="M10.5,36.9c-0.6,0.1-1.2,0.5-1.6,1c3.5,3.5,9.2,3.8,13,0.6c4.1-3.4,4.5-9.7,1.1-13.6
			C23.2,31.6,16.3,35.8,10.5,36.9"/>
		<path class="st9" d="M28.5,42.1c-0.2,0.6-0.2,1.3,0.1,1.9c4.8-1.3,7.9-6.1,7-10.9c-0.9-5.2-6.1-8.7-11.3-7.7
			C30.2,28.5,30.4,36.6,28.5,42.1"/>
	</g>
	<path class="st8" d="M24,5.9C14,5.9,5.9,14,5.9,24S14,42.1,24,42.1S42.1,34,42.1,24S34,5.9,24,5.9z M24,11.2c2.6,0,5,0.8,7,2.1
		C24.9,19.5,16.7,27.7,13.3,31c-1.3-2-2.1-4.4-2.1-7C11.2,17,17,11.2,24,11.2z M24,36.8c-2.5,0-4.9-0.8-6.9-2
		C20.9,31,28.9,23,34.7,17.1c1.3,2,2.1,4.4,2.1,6.9C36.8,31,31,36.8,24,36.8z"/>
</g>
<g id="レイヤー_3">
	<g class="st0">
		<circle class="st11" cx="24" cy="24" r="23"/>
		<g class="st4">
			<line class="st12" x1="13.6" y1="17" x2="34.4" y2="17"/>
			<line class="st12" x1="13.6" y1="24" x2="34.4" y2="24"/>
			<line class="st12" x1="13.6" y1="31" x2="34.4" y2="31"/>
		</g>
	</g>
	<path class="st7" d="M39.8,47.2l-36-17.9c-3.6-1.8-3.7-6.9-0.2-8.8l36-19.6C43-0.9,47,1.5,47,5.2v37.5C47,46.5,43.1,48.9,39.8,47.2
		z"/>
</g>
</svg>
