<svg id="レイヤー_4" data-name="レイヤー 4" xmlns="http://www.w3.org/2000/svg" viewBox="0 0 48 48"><title>ico-master-base</title><path d="M39,32.142a.39.39,0,0,0-.565,0L37.3,33.272,25.027,12.115l-.565-1.05.767-1.332a.416.416,0,0,0-.727-.4l-.525.888-.485-.929a.416.416,0,0,0-.727.4l.727,1.332-12.8,22.288L9.563,32.182A.4.4,0,0,0,9,32.748l1.534,1.534c.04.04.081.04.121.081h.04c.04,0,.081.04.121.04H37.22a.148.148,0,0,0,.121-.04h.04c.04,0,.081-.04.121-.081l1.534-1.534A.488.488,0,0,0,39,32.142ZM23.371,12.963l.2-.363v3.109h-.4a.4.4,0,0,0,0,.808h.4v.808h-.4a.4.4,0,0,0,0,.808h.4v.808h-.4a.4.4,0,0,0,0,.808h.4v.808h-.4a.4.4,0,0,0,0,.808h.4v.808h-.4a.4.4,0,0,0,0,.808h.4v.808h-.4a.4.4,0,0,0,0,.808h.4V25.4h-.4a.4.4,0,0,0,0,.808h.4v.808h-.4a.4.4,0,0,0,0,.808h.4v.888l-2.746,4.724H11.46ZM21.756,33.555l2.221-3.836L26.2,33.555Zm5.37,0-2.746-4.764V27.9h.4a.4.4,0,1,0,0-.808h-.4v-.808h.4a.4.4,0,0,0,0-.808h-.4v-.808h.4a.4.4,0,0,0,0-.808h-.4v-.808h.4a.4.4,0,0,0,0-.808h-.4v-.808h.4a.4.4,0,0,0,0-.808h-.4v-.808h.4a.4.4,0,1,0,0-.808h-.4v-.808h.4a.4.4,0,0,0,0-.808h-.4V16.6h.4a.4.4,0,1,0,0-.808h-.4V12.64L36.494,33.6H27.126Z" fill="#9e9e9f"/></svg>