<?xml version="1.0" encoding="utf-8"?>
<!-- Generator: Adobe Illustrator 19.2.1, SVG Export Plug-In . SVG Version: 6.00 Build 0)  -->
<svg version="1.1" id="レイヤー_1" xmlns="http://www.w3.org/2000/svg" xmlns:xlink="http://www.w3.org/1999/xlink" x="0px"
	 y="0px" viewBox="0 0 48 48" style="enable-background:new 0 0 48 48;" xml:space="preserve">
<g id="レイヤー_1_1_">
	<g>
		<path style="fill:#9E9E9F;" d="M24.4,7.2L11.4,21c-0.6,0.7-0.6,1.7,0,2.4c0.6,0.7,1.6,0.7,2.2,0L26.7,9.6c0.5-0.5,4.9-4.8,9.4,0
			s0.5,9.4,0,9.9L17.5,39.2c-0.5,0.5-3.3,3.1-6.3,0c-2.9-3.1-0.5-6,0-6.6l16.4-17.3c0.5-0.5,1.7-1.4,3.1,0s0.4,2.8,0,3.3l-6.3,6.7
			c-0.6,0.7-0.6,1.7,0,2.4c0.6,0.7,1.6,0.7,2.2,0L33,21c1.5-1.6,2.8-5.1,0-8s-6-1.6-7.6,0L9,30.2c-1.9,2-4.2,6.8,0,11.3
			c1.6,1.6,3.3,2.5,5.2,2.5c3.1,0,5.4-2.4,5.5-2.5l18.6-19.6c2.4-2.5,5.5-8.9,0-14.7S26.8,4.7,24.4,7.2z"/>
	</g>
</g>
</svg>
