<?xml version="1.0" encoding="utf-8"?>
<!-- Generator: Adobe Illustrator 19.2.1, SVG Export Plug-In . SVG Version: 6.00 Build 0)  -->
<svg version="1.1" id="レイヤー_4" xmlns="http://www.w3.org/2000/svg" xmlns:xlink="http://www.w3.org/1999/xlink" x="0px"
	 y="0px" viewBox="0 0 48 48" style="enable-background:new 0 0 48 48;" xml:space="preserve">
<style type="text/css">
	.st0{display:none;}
	.st1{display:inline;fill:#4EB5A2;}
	.st2{fill:#4EB5A2;}
</style>
<g>
	<g class="st0">
		<path class="st1" d="M31.1,34.3c0,0.6,0.2,1,0.6,1.4c0.4,0.4,0.9,0.6,1.4,0.6c0.6,0,1-0.2,1.4-0.6c0.4-0.4,0.6-0.9,0.6-1.4
			c0-0.6-0.2-1-0.6-1.4c-0.4-0.4-0.9-0.6-1.4-0.6c-0.6,0-1,0.2-1.4,0.6C31.3,33.3,31.1,33.8,31.1,34.3L31.1,34.3z M31.1,34.3"/>
		<path class="st1" d="M36.8,16.4c-0.2-0.2-0.4-0.3-0.7-0.3h-19c0-0.1,0-0.2-0.1-0.4c0-0.2-0.1-0.4-0.1-0.5c0-0.1-0.1-0.3-0.1-0.4
			c-0.1-0.2-0.1-0.3-0.2-0.4c-0.1-0.1-0.2-0.2-0.3-0.2c-0.1-0.1-0.3-0.1-0.4-0.1h-4c-0.3,0-0.5,0.1-0.7,0.3
			c-0.2,0.2-0.3,0.4-0.3,0.7c0,0.3,0.1,0.5,0.3,0.7c0.2,0.2,0.4,0.3,0.7,0.3h3.2l2.8,13c0,0-0.1,0.2-0.3,0.6
			c-0.2,0.4-0.4,0.7-0.5,0.9c-0.1,0.3-0.2,0.5-0.2,0.6c0,0.3,0.1,0.5,0.3,0.7c0.2,0.2,0.4,0.3,0.7,0.3h16.2c0.3,0,0.5-0.1,0.7-0.3
			c0.2-0.2,0.3-0.4,0.3-0.7c0-0.3-0.1-0.5-0.3-0.7c-0.2-0.2-0.4-0.3-0.7-0.3H19.6c0.3-0.5,0.4-0.8,0.4-1c0-0.1,0-0.2,0-0.3
			c0-0.1-0.1-0.3-0.1-0.4c0-0.2-0.1-0.3-0.1-0.3l16.5-1.9c0.3,0,0.5-0.1,0.6-0.3c0.2-0.2,0.3-0.4,0.3-0.7v-8.1
			C37.1,16.9,37,16.6,36.8,16.4L36.8,16.4z M36.8,16.4"/>
		<path class="st1" d="M16.9,34.3c0,0.6,0.2,1,0.6,1.4c0.4,0.4,0.9,0.6,1.4,0.6c0.6,0,1-0.2,1.4-0.6c0.4-0.4,0.6-0.9,0.6-1.4
			c0-0.6-0.2-1-0.6-1.4c-0.4-0.4-0.9-0.6-1.4-0.6c-0.6,0-1,0.2-1.4,0.6C17.1,33.3,16.9,33.8,16.9,34.3L16.9,34.3z M16.9,34.3"/>
	</g>
	<path class="st2" d="M37,35.5c-2.1,0-3.8,1.4-4.2,3.4H19.1c-0.2-1.1-0.8-2-1.7-2.7l1.7-5.4h21.6L45,12.1L10.9,7.6L8.1,5.7l0.1-0.6
		c0-1.4-1.2-2.6-2.6-2.6C4.2,2.5,3,3.7,3,5.2c0,1.4,1.2,2.6,2.6,2.6l0.5-0.1l3.2,2.1l5.3,21h1.6l-1.4,4.5l-0.2,0
		c-2.5,0-4.5,2-4.5,4.5c0,2.5,2,4.5,4.5,4.5c1.8,0,3.4-1.1,4.1-2.7H33c0.7,1.6,2.2,2.7,4,2.7c2.4,0,4.4-2,4.4-4.4S39.4,35.5,37,35.5
		z"/>
</g>
</svg>
