<svg id="レイヤー_4" data-name="レイヤー 4" xmlns="http://www.w3.org/2000/svg" viewBox="0 0 48 48"><title>ico-insurancecard</title><path d="M42.41,19h-2V14.28h2Zm-3.26,0h-2V14.28h2ZM35.9,19h-2V14.28h2Zm-3.26,0h-2V14.28h2Zm-3.26,0h-2V14.28h2Zm-3.26,0h-2V14.28h2Zm-3.26,0h-2V14.28h2Z" fill="#9e9e9f"/><path d="M35.9,24.23h-2V21.38h2Zm-3.26,0h-2V21.38h2Zm-3.26,0h-2V21.38h2Zm-3.26,0h-2V21.38h2Zm-3.26,0h-2V21.38h2Z" fill="#9e9e9f"/><path d="M39.15,28.55h-2V25.7h2Zm-3.26,0h-2V25.7h2Zm-3.26,0h-2V25.7h2Zm-3.26,0h-2V25.7h2Zm-3.26,0h-2V25.7h2Zm-3.26,0h-2V25.7h2Z" fill="#9e9e9f"/><polygon points="17.5 19.895 13.465 19.895 13.465 15.86 9.535 15.86 9.535 19.895 5.5 19.895 5.5 23.825 9.535 23.825 9.535 27.86 13.465 27.86 13.465 23.825 17.5 23.825 17.5 19.895" fill="#9e9e9f"/><path d="M44.69,7.92H3.31A2.31,2.31,0,0,0,1,10.23V37.77a2.31,2.31,0,0,0,2.31,2.31H44.69A2.31,2.31,0,0,0,47,37.77V10.23A2.31,2.31,0,0,0,44.69,7.92ZM3.31,9.32H44.69v.01a.92.92,0,0,1,.91.91V33.18H2.4V10.23A.92.92,0,0,1,3.31,9.32ZM44.69,38.68H3.31a.92.92,0,0,1-.91-.91V35.18H45.6v2.59A.92.92,0,0,1,44.69,38.68Z" fill="#9e9e9f"/></svg>