<svg id="レイヤー_4" data-name="レイヤー 4" xmlns="http://www.w3.org/2000/svg" viewBox="0 0 48 48"><title>ico-license</title><path d="M43.93,19.12H29.38V36.54h2.666l.394-3.97a4.318,4.318,0,0,1,8.44-.03l.4,4H43.93Zm-7.28,9.01a3.88,3.88,0,1,1,3.88-3.88A3.88,3.88,0,0,1,36.65,28.13Z" fill="#9e9e9f"/><path d="M44.69,9.33a.92.92,0,0,1,.91.91V37.77a.92.92,0,0,1-.91.91H3.31a.92.92,0,0,1-.91-.91V10.23a.92.92,0,0,1,.91-.91H44.69m0-1.4H3.31A2.31,2.31,0,0,0,1,10.23H1V37.77a2.31,2.31,0,0,0,2.31,2.31H44.69A2.31,2.31,0,0,0,47,37.77h0V10.23a2.31,2.31,0,0,0-2.31-2.31Z" fill="#9e9e9f"/><path d="M27.12,25.17h-2V20.33h2Zm-3.32,0h-2V20.33h2Zm-3.32,0h-2V20.33h2Zm-3.32,0h-2V20.33h2Zm-3.32,0h-2V20.33h2Zm-3.32,0h-2V20.33h2Zm-3.32,0h-2V20.33h2Z" fill="#9e9e9f"/><path d="M20.48,30.46h-2v-2.9h2Zm-3.32,0h-2v-2.9h2Zm-3.32,0h-2v-2.9h2Zm-3.32,0h-2v-2.9h2Zm-3.32,0h-2v-2.9h2Z" fill="#9e9e9f"/><path d="M23.8,34.86h-2V32h2Zm-3.32,0h-2V32h2Zm-3.32,0h-2V32h2Zm-3.32,0h-2V32h2Zm-3.32,0h-2V32h2Zm-3.32,0h-2V32h2Z" fill="#9e9e9f"/><g style="isolation:isolate"><path d="M12.4,15.78v.66H9.053V12.079h1.025a.044.044,0,0,1,.017.034.111.111,0,0,1-.031.066.316.316,0,0,0-.047.146v3.456H12.4Z" fill="#9e9e9f"/></g><g style="isolation:isolate"><path d="M13.4,12.079h2.92v.653H15.312V15.8H16.37v.643H13.355v-.649h1.013V12.733H13.4v-.654Z" fill="#9e9e9f"/></g><g style="isolation:isolate"><path d="M20.016,13.313a.079.079,0,0,1-.049-.031.123.123,0,0,1-.015-.05c0-.019,0-.042-.006-.066a.24.24,0,0,0-.025-.079.922.922,0,0,0-.32-.354.942.942,0,0,0-.513-.128.88.88,0,0,0-.453.118,1.046,1.046,0,0,0-.347.333,1.707,1.707,0,0,0-.222.52,2.709,2.709,0,0,0-.078.673,2.479,2.479,0,0,0,.084.662,1.762,1.762,0,0,0,.236.524,1.135,1.135,0,0,0,.365.347.91.91,0,0,0,.467.125.931.931,0,0,0,.533-.155,1.593,1.593,0,0,0,.415-.426l.713.386a1.941,1.941,0,0,1-.718.639,2,2,0,0,1-.918.215,2.572,2.572,0,0,1-.857-.138,1.836,1.836,0,0,1-.683-.422,1.957,1.957,0,0,1-.451-.712,2.857,2.857,0,0,1-.162-1.01,3.045,3.045,0,0,1,.088-.767,2.279,2.279,0,0,1,.242-.6,1.829,1.829,0,0,1,.359-.438,2,2,0,0,1,.437-.3,2.058,2.058,0,0,1,.478-.167,2.233,2.233,0,0,1,.48-.053,2.2,2.2,0,0,1,.566.072,2.064,2.064,0,0,1,.5.2,1.931,1.931,0,0,1,.406.314,1.673,1.673,0,0,1,.293.4Z" fill="#9e9e9f"/></g><g style="isolation:isolate"><path d="M21.78,12.079h3.408v.673H22.695v1.077h2.067v.687H22.695v1.251h2.478v.673H21.78Z" fill="#9e9e9f"/><path d="M30.109,16.44H29.072l-1.776-3.3v3.3h-.845V12.079H27.6L29.265,15.2V12.079h.906a.044.044,0,0,1,.017.034.111.111,0,0,1-.031.066.356.356,0,0,0-.047.146V16.44Z" fill="#9e9e9f"/></g><g style="isolation:isolate"><path d="M34.251,13.207a.187.187,0,0,1-.089-.021.115.115,0,0,1-.041-.044.224.224,0,0,1-.021-.06.192.192,0,0,0-.033-.063,1.067,1.067,0,0,0-.39-.291,1.385,1.385,0,0,0-.591-.116.878.878,0,0,0-.269.039.65.65,0,0,0-.205.106.477.477,0,0,0-.129.153.4.4,0,0,0-.046.183.488.488,0,0,0,.048.213.553.553,0,0,0,.173.2,1.691,1.691,0,0,0,.34.2,5.852,5.852,0,0,0,.547.212,4.1,4.1,0,0,1,.663.279,1.773,1.773,0,0,1,.423.308.933.933,0,0,1,.221.345,1.168,1.168,0,0,1,.064.392,1.224,1.224,0,0,1-.1.485,1.1,1.1,0,0,1-.324.426,1.718,1.718,0,0,1-.576.3,2.738,2.738,0,0,1-.856.116,2.677,2.677,0,0,1-.972-.169,2.6,2.6,0,0,1-.8-.49l.48-.7a.179.179,0,0,1,.076.031.305.305,0,0,1,.047.048.667.667,0,0,1,.041.062.663.663,0,0,0,.053.075,1.835,1.835,0,0,0,.2.174,1.3,1.3,0,0,0,.256.15,1.673,1.673,0,0,0,.316.1,1.73,1.73,0,0,0,.381.039,1.074,1.074,0,0,0,.6-.148.526.526,0,0,0,.22-.467.387.387,0,0,0-.05-.189.556.556,0,0,0-.166-.178,1.7,1.7,0,0,0-.313-.178,4.837,4.837,0,0,0-.5-.19,4.659,4.659,0,0,1-.673-.28,2.107,2.107,0,0,1-.457-.314,1.09,1.09,0,0,1-.261-.355.984.984,0,0,1-.082-.4.946.946,0,0,1,.127-.479,1.279,1.279,0,0,1,.354-.39,1.776,1.776,0,0,1,.542-.263,2.349,2.349,0,0,1,.69-.1,2.4,2.4,0,0,1,.9.167,1.893,1.893,0,0,1,.71.485Z" fill="#9e9e9f"/></g><g style="isolation:isolate"><path d="M35.892,12.079H39.3v.673H36.807v1.077h2.066v.687H36.807v1.251h2.477v.673H35.892Z" fill="#9e9e9f"/></g></svg>