<svg id="レイヤー_4" data-name="レイヤー 4" xmlns="http://www.w3.org/2000/svg" viewBox="0 0 48 48"><title>ico-sp-gloval-search</title><path d="M24,4A20,20,0,1,1,4,24,20.023,20.023,0,0,1,24,4m0-4A24,24,0,1,0,48,24,24,24,0,0,0,24,0Z" fill="#9e9e9f"/><path d="M40.592,23.109a.891.891,0,0,1,0,1.782H36.743a.891.891,0,0,1,0-1.782Z" fill="#9e9e9f"/><path d="M30.152,15.512l-1.8,11.611L17.9,32.488l1.805-11.611Zm-4.175,9.9a2.4,2.4,0,1,0-3.353.537A2.413,2.413,0,0,0,25.977,25.41Z" fill="#9e9e9f"/><path d="M11.85,23.109a.891.891,0,0,1,0,1.782H8a.891.891,0,0,1,0-1.782Z" fill="#9e9e9f"/><path d="M25.187,40.3a.891.891,0,0,1-1.782,0V36.446a.891.891,0,0,1,1.782,0Z" fill="#9e9e9f"/><path d="M25.187,11.553a.891.891,0,0,1-1.782,0V7.7a.891.891,0,0,1,1.782,0Z" fill="#9e9e9f"/></svg>