<?xml version="1.0" encoding="utf-8"?>
<!-- Generator: Adobe Illustrator 19.2.1, SVG Export Plug-In . SVG Version: 6.00 Build 0)  -->
<svg version="1.1" id="レイヤー_1" xmlns="http://www.w3.org/2000/svg" xmlns:xlink="http://www.w3.org/1999/xlink" x="0px"
	 y="0px" viewBox="0 0 48 48" style="enable-background:new 0 0 48 48;" xml:space="preserve">
<g id="レイヤー_1_1_">
	<path style="fill:#9E9E9F;" d="M33.8,5.8c0.3,0,0.7,0,1,0c7.4,0.5,9.4,6.7,9.2,9.8c-0.2,3.1-1,6.2-4.7,10.8
		c-4,4.9-15,15.8-15.2,15.8S12.8,31.3,8.9,26.4C5,21.7,4.2,18.7,4,15.6c-0.2-3.1,1.8-9.2,9.2-9.8c0.3,0,0.7,0,1,0
		c6.6,0,8.7,4.7,9.8,7.2C25.1,10.5,27.2,5.8,33.8,5.8"/>
</g>
</svg>
