<svg id="レイヤー_4" data-name="レイヤー 4" xmlns="http://www.w3.org/2000/svg" viewBox="0 0 48 48"><title>ico-www</title>

<path d="M43.9,19.308a20.465,20.465,0,0,0-39.8-.153l-.018.078.909,3.5.224-1.509a18.82,18.82,0,0,1,2.8-7.461c1.648.429,3.853.88,5.849,1.179-.2,1.392-.316,2.713-.412,4.033h1.484c.085-1.222.216-2.634.39-3.824a68.5,68.5,0,0,0,7.908.6v3.228h1.488V15.761a61.785,61.785,0,0,0,7.791-.508c.164,1.151.274,2.284.359,3.434l.018.291h1.484l-.025-.334c-.106-1.52-.263-2.88-.373-3.608a54.921,54.921,0,0,0,5.959-1.285A19.059,19.059,0,0,1,42.76,21.3l.206,1.442.954-3.353Zm-4.865-6.846a52.068,52.068,0,0,1-5.283,1.1,49.193,49.193,0,0,0-1.594-6.676,19.2,19.2,0,0,1,6.878,5.579Zm-6.75,1.3a60.856,60.856,0,0,1-7.561.479v-9.2a18.777,18.777,0,0,1,5.551,1.058l.053.017.018.054a45.159,45.159,0,0,1,1.939,7.589Zm-16.636-6.8A49.632,49.632,0,0,0,14.1,13.449c-1.773-.274-3.423-.579-5.163-.991a19.278,19.278,0,0,1,6.711-5.5Zm1.835-.785A18.881,18.881,0,0,1,23.24,5.047v9.186a70,70,0,0,1-7.673-.578,45.006,45.006,0,0,1,1.917-7.479Zm0,0" fill="#fff"/>
<path d="M7.4,25.533A29.977,29.977,0,0,0,8.315,22.2h.043a33.2,33.2,0,0,0,.9,3.316L10.8,30.33h1.669l3.253-10.091H13.9l-1.438,5.067a31.612,31.612,0,0,0-.774,3.274h-.06c-.227-1.02-.522-2.084-.9-3.293L9.171,20.239H7.627L5.979,25.391c-.334,1.083-.667,2.166-.895,3.189H5.016c-.185-1.044-.457-2.084-.749-3.211L2.931,20.239H1.057L4.1,30.33H5.77Zm0,0" fill="#fff"/>
<path d="M27.3,28.58h-.06c-.227-1.023-.523-2.088-.9-3.3l-1.565-5.046H23.24l-1.651,5.149c-.33,1.086-.667,2.17-.894,3.193H20.63c-.185-1.044-.458-2.088-.749-3.214l-1.339-5.127H16.667L19.711,30.33h1.668l1.627-4.8a29.272,29.272,0,0,0,.919-3.338h.039c.253,1.19.547,2.191.9,3.32L26.4,30.33h1.673l3.253-10.091H29.515L28.077,25.3A31.267,31.267,0,0,0,27.3,28.58Zm0,0" fill="#fff"/>
<path d="M41.151,32.088a17.869,17.869,0,0,1-.965,1.807,61.019,61.019,0,0,0-6.654-1.328c.131-.727.153-.76.33-1.861l.007-.067-1.041-3.455-.177,1.471c-.153,1.246-.355,2.51-.593,3.711-2.713-.345-5.167-.43-7.333-.525V29.989L23.911,27.4c-.806,3.082-.654,2.056-.672,4.432l-2.858.082c-1.765.085-3.4.231-4.62.386l-.022-.114c-.227-1.168-.419-2.375-.565-3.59l-.166-1.406L13.94,30.5l.011.075c.131.842.2,1.207.337,1.928a53.727,53.727,0,0,0-6.509,1.4,19.828,19.828,0,0,1-.966-1.807l-.085-.177H5.094l.2.436c7.241,16.164,30.162,16.132,37.384,0l.2-.44H41.236ZM24.724,42.982V33.359c2.017.033,4.471.2,7.01.5a60.338,60.338,0,0,1-2.852,8.494,19.046,19.046,0,0,1-4.158.632Zm6.115-1.267a57.525,57.525,0,0,0,2.375-7.663c1.857.255,3.843.625,6.093,1.158a19.1,19.1,0,0,1-8.469,6.505Zm-13.849-.05a19.094,19.094,0,0,1-8.34-6.473A51.56,51.56,0,0,1,14.6,33.97a50.791,50.791,0,0,0,2.393,7.7Zm6.25-8.32v9.637a19.081,19.081,0,0,1-4.4-.7,60.425,60.425,0,0,1-2.763-8.515,62.091,62.091,0,0,1,7.165-.423Zm0,0" fill="#fff"/>
<path d="M45.125,20.239,43.683,25.3a30.511,30.511,0,0,0-.771,3.278h-.06c-.231-1.023-.523-2.084-.9-3.293l-1.565-5.049H38.846L37.2,25.387c-.334,1.086-.668,2.17-.9,3.193H36.24c-.188-1.044-.462-2.084-.753-3.211l-1.335-5.131H32.277L35.32,30.33h1.669l1.63-4.8a29.778,29.778,0,0,0,.916-3.334h.043a34.2,34.2,0,0,0,.9,3.316l1.542,4.815h1.669l3.256-10.091Zm0,0" fill="#fff"/>

</svg>