<svg xmlns="http://www.w3.org/2000/svg" viewBox="0 0 48 48"><title>ico-rating-bad</title><g id="レイヤー_1" data-name="レイヤー 1"><path d="M35.7,13.151a7.988,7.988,0,0,0-1.247.1,10.253,10.253,0,0,0-19.465-1.2c-.1,0-.193-.008-.289-.008a5.813,5.813,0,0,0-5.768,5.186,6.342,6.342,0,0,0,1.4,12.526H35.806a8.3,8.3,0,0,0-.1-16.6Zm.1,14.323H10.337a4.064,4.064,0,0,1-.221-8.122l1.175-.06-.1-1.175c-.008-.092-.008-.185-.008-.277A3.526,3.526,0,0,1,14.7,14.318a3.379,3.379,0,0,1,.806.092l1.055.245.3-1.043a7.976,7.976,0,0,1,15.41.289,8.3,8.3,0,0,0-3.878,3.638,1.088,1.088,0,0,0-.168.589,1.141,1.141,0,0,0,2.142.546.184.184,0,0,0,0-.02,6.024,6.024,0,1,1,5.439,8.82Z" fill="#9e9e9f"/><path d="M21.041,39.36a3.082,3.082,0,1,0,6.163,0c0-1.7-3.082-6.8-3.082-6.8S21.041,37.658,21.041,39.36Z" fill="#9e9e9f"/><path d="M31.551,37.865a2.4,2.4,0,1,0,4.808,0c0-1.328-2.4-5.306-2.4-5.306S31.551,36.537,31.551,37.865Z" fill="#9e9e9f"/><path d="M11.885,37.865a2.4,2.4,0,1,0,4.808,0c0-1.328-2.4-5.306-2.4-5.306S11.885,36.537,11.885,37.865Z" fill="#9e9e9f"/></g></svg>