<svg id="レイヤー_4" data-name="レイヤー 4" xmlns="http://www.w3.org/2000/svg" viewBox="0 0 48 48"><title>ico-public-sale</title><g id="レイヤー_1" data-name="レイヤー 1"><path id="path" d="M29.938,29.68V26.531s-4.319,5.308-4.319,7.558c0,2.069,4.319,7.558,4.319,7.558V38.5h4.319a3.019,3.019,0,0,0,2.609-1.44l5.218-9.267a4.148,4.148,0,0,1-3.779,2.069l-8.367-.18Z" fill="none" stroke="#9e9e9f" stroke-miterlimit="10"/><path id="path-2" d="M32.907,8.9a3.342,3.342,0,0,0-2.969-1.8,3.449,3.449,0,0,0-2.969,1.8s-1.08,1.8-1.889,3.509l1.889,3.509-2.789,1.53s6.748,1.08,8.457,0c1.889-1.08,4.319-7.558,4.319-7.558l-2.609,1.619A9.9,9.9,0,0,0,32.907,8.9Z" fill="none" stroke="#9e9e9f" stroke-miterlimit="10"/><path id="path-3" d="M41.274,26.981a3.624,3.624,0,0,0,0-3.329s-2.069-3.689-3.779-6.658l-7.378,4.229,4.319,7.558H38.4A3.205,3.205,0,0,0,41.274,26.981Z" fill="none" stroke="#9e9e9f" stroke-miterlimit="10"/><path id="path-3-2" data-name="path-3" d="M12.3,36.608a3.438,3.438,0,0,0,2.879,1.619H22.83V29.77H14.1l-1.979,3.419A3.319,3.319,0,0,0,12.3,36.608Z" fill="none" stroke="#9e9e9f" stroke-miterlimit="10"/><path id="path-4" d="M15.9,25.272l2.789,1.619s-2.429-6.3-4.319-7.558c-1.889-.9-8.457.18-8.457.18L8.7,21.133,6.456,24.822a2.924,2.924,0,0,0,0,2.969l5.218,9.267a4.769,4.769,0,0,1,0-4.409Z" fill="none" stroke="#9e9e9f" stroke-miterlimit="10"/><path id="path-6" d="M12.484,15.555l7.288,4.229s5.578-9.627,6.568-11.426a3.876,3.876,0,0,1,3.6-2.069H19.591a3.193,3.193,0,0,0-2.609,1.619C16.083,9.257,12.484,15.555,12.484,15.555Z" fill="none" stroke="#9e9e9f" stroke-miterlimit="10"/></g></svg>