<svg xmlns="http://www.w3.org/2000/svg" viewBox="0 0 48 48"><title>ico-user_rating</title><g id="レイヤー_1" data-name="レイヤー 1"><path d="M15.682,11.956a.384.384,0,0,1-.381.574H12.812a.384.384,0,0,1-.382-.574l1.385-3.305c.131-.316.349-.316.481,0Z" fill="#9e9e9f"/><path d="M3.542,24.1a.384.384,0,0,0,.574-.381V21.226a.384.384,0,0,0-.574-.381L.237,22.23c-.316.132-.316.349,0,.481Z" fill="#9e9e9f"/><path d="M7.771,31.055a.384.384,0,0,0,.137-.675l-1.76-1.76a.384.384,0,0,0-.675.136L4.114,32.072c-.13.316.023.47.34.34Z" fill="#9e9e9f"/><path d="M22.64,16.185a.384.384,0,0,1-.675.137l-1.76-1.76a.384.384,0,0,1,.136-.675l3.316-1.358c.317-.13.47.023.341.34Z" fill="#9e9e9f"/><path d="M5.472,16.185a.384.384,0,0,0,.675.137l1.76-1.76a.384.384,0,0,0-.136-.675L4.455,12.529c-.317-.13-.47.023-.341.34Z" fill="#9e9e9f"/><path d="M39.994,23.57a7.7,7.7,0,0,0-1.2.093,9.892,9.892,0,0,0-18.779-1.157c-.093,0-.186-.008-.278-.008a5.608,5.608,0,0,0-5.565,5,6.119,6.119,0,0,0,1.354,12.085H40.095a8.008,8.008,0,0,0-.1-16.016Z" fill="#9e9e9f"/><path d="M19.862,19.564A11.47,11.47,0,0,1,21.2,18,8.424,8.424,0,1,0,9.1,29.28a7.586,7.586,0,0,1,1.256-1.487" fill="#9e9e9f"/></g></svg>