<?xml version="1.0" encoding="utf-8"?>
<!-- Generator: Adobe Illustrator 20.1.0, SVG Export Plug-In . SVG Version: 6.00 Build 0)  -->
<svg version="1.1" id="レイヤー_4" xmlns="http://www.w3.org/2000/svg" xmlns:xlink="http://www.w3.org/1999/xlink" x="0px"
	 y="0px" viewBox="0 0 48 48" style="enable-background:new 0 0 48 48;" xml:space="preserve">
<style type="text/css">
	.st0{fill:#9E9E9F;}
	.st1{enable-background:new    ;}
</style>
<g>
	<path class="st0" d="M10.2,2.4h27.5c0.5,0,0.9,0.4,0.9,0.9v41.4c0,0.5-0.4,0.9-0.9,0.9H10.2c-0.5,0-0.9-0.4-0.9-0.9V3.3
		C9.3,2.8,9.7,2.4,10.2,2.4 M10.2,1C9,1,7.9,2,7.9,3.3v41.4c0,1.3,1,2.3,2.3,2.3h27.5c1.3,0,2.3-1,2.3-2.3l0,0V3.3
		C40.1,2,39,1,37.8,1l0,0H10.2z"/>
	<path class="st0" d="M32.3,42h-1.8v-2.6h1.8V42z M29.3,42h-1.8v-2.6h1.8L29.3,42z M26.3,42h-1.7v-2.6h1.8L26.3,42z M23.3,42h-1.7
		v-2.6h1.8L23.3,42z M20.3,42h-1.7v-2.6h1.8L20.3,42z M17.3,42h-1.6v-2.6h1.8L17.3,42z"/>
	<g class="st1">
		<path class="st0" d="M14,7.4h1.8c0.3,0,0.6,0,0.8,0.1c0.2,0.1,0.4,0.2,0.5,0.3c0.1,0.1,0.2,0.3,0.3,0.4c0.1,0.2,0.1,0.3,0.1,0.5
			s0,0.3-0.1,0.5c-0.1,0.2-0.2,0.3-0.3,0.4c-0.1,0.1-0.3,0.2-0.5,0.3S16.1,10,15.8,10H15v1.8h-1L14,7.4L14,7.4z M15,8.1v1.2h0.8
			c0.1,0,0.3,0,0.4,0c0.1,0,0.2-0.1,0.3-0.1c0.1-0.1,0.1-0.1,0.1-0.2s0-0.2,0-0.2c0-0.1,0-0.2,0-0.3s-0.1-0.1-0.1-0.2
			s-0.2-0.1-0.3-0.1s-0.2,0-0.4,0H15z"/>
		<path class="st0" d="M19,11.8l1.7-4.4h0.5l1.9,4.4h-1l-0.5-1.1h-1.4l-0.4,1.1H19z M21.5,10.1L21,8.6l-0.5,1.4L21.5,10.1L21.5,10.1
			z"/>
		<path class="st0" d="M27.5,8.5C27.5,8.5,27.5,8.5,27.5,8.5c-0.1,0-0.1,0-0.1-0.1s0,0,0-0.1c0,0,0,0,0-0.1
			c-0.1-0.1-0.2-0.2-0.4-0.3s-0.4-0.1-0.6-0.1c-0.1,0-0.2,0-0.3,0C26,8,25.9,8,25.9,8.1c-0.1,0-0.1,0.1-0.1,0.2c0,0.1,0,0.1,0,0.2
			c0,0.1,0,0.1,0,0.2s0.1,0.1,0.2,0.2C26,8.9,26.1,9,26.3,9s0.3,0.1,0.5,0.2c0.3,0.1,0.5,0.2,0.7,0.3s0.3,0.2,0.4,0.3
			c0.1,0.1,0.2,0.2,0.2,0.3c0,0.1,0.1,0.3,0.1,0.4c0,0.2,0,0.3-0.1,0.5c-0.1,0.2-0.2,0.3-0.3,0.4c-0.1,0.1-0.3,0.2-0.6,0.3
			c-0.2,0.1-0.5,0.1-0.9,0.1c-0.4,0-0.7-0.1-1-0.2c-0.3-0.1-0.6-0.3-0.8-0.5l0.5-0.7c0,0,0.1,0,0.1,0s0,0,0,0s0,0,0,0.1s0,0,0.1,0.1
			c0.1,0.1,0.1,0.1,0.2,0.2s0.2,0.1,0.3,0.1s0.2,0.1,0.3,0.1s0.2,0,0.4,0c0.3,0,0.5-0.1,0.6-0.1c0.1-0.1,0.2-0.3,0.2-0.5
			c0-0.1,0-0.1,0-0.2c0-0.1-0.1-0.1-0.2-0.2c-0.1-0.1-0.2-0.1-0.3-0.2c-0.1-0.1-0.3-0.1-0.5-0.2c-0.3-0.1-0.5-0.2-0.7-0.3
			s-0.3-0.2-0.5-0.3C25,9.2,24.9,9,24.8,8.9s-0.1-0.3-0.1-0.4c0-0.2,0-0.3,0.1-0.5c0.1-0.1,0.2-0.3,0.4-0.4c0.2-0.1,0.3-0.2,0.5-0.3
			s0.4-0.1,0.7-0.1c0.3,0,0.6,0.1,0.9,0.2c0.3,0.1,0.5,0.3,0.7,0.5L27.5,8.5z"/>
		<path class="st0" d="M32.9,8.5C32.9,8.5,32.8,8.5,32.9,8.5c-0.1,0-0.1,0-0.1-0.1c0,0,0,0,0-0.1c0,0,0,0,0-0.1
			c-0.1-0.1-0.2-0.2-0.4-0.3S32,7.9,31.7,7.9c-0.1,0-0.2,0-0.3,0c-0.1,0-0.1,0.1-0.2,0.1c-0.1,0-0.1,0.1-0.1,0.2c0,0.1,0,0.1,0,0.2
			c0,0.1,0,0.1,0,0.2c0,0.1,0.1,0.1,0.2,0.2C31.4,8.9,31.5,9,31.6,9s0.3,0.1,0.5,0.2c0.3,0.1,0.5,0.2,0.7,0.3s0.3,0.2,0.4,0.3
			c0.1,0.1,0.2,0.2,0.2,0.3c0,0.1,0.1,0.3,0.1,0.4c0,0.2,0,0.3-0.1,0.5c-0.1,0.2-0.2,0.3-0.3,0.4c-0.1,0.1-0.3,0.2-0.6,0.3
			c-0.2,0.1-0.5,0.1-0.9,0.1c-0.4,0-0.7-0.1-1-0.2c-0.3-0.1-0.6-0.3-0.8-0.5l0.5-0.7c0,0,0.1,0,0.1,0s0,0,0,0s0,0,0,0.1s0,0,0.1,0.1
			c0.1,0.1,0.1,0.1,0.2,0.2s0.2,0.1,0.3,0.1s0.2,0.1,0.3,0.1s0.2,0,0.4,0c0.3,0,0.5-0.1,0.6-0.1c0.1-0.1,0.2-0.3,0.2-0.5
			c0-0.1,0-0.1,0-0.2c0-0.1-0.1-0.1-0.2-0.2c-0.1-0.1-0.2-0.1-0.3-0.2c-0.1-0.1-0.3-0.1-0.5-0.2c-0.3-0.1-0.5-0.2-0.7-0.3
			s-0.3-0.2-0.5-0.3S30.2,9,30.2,8.9s-0.1-0.3-0.1-0.4c0-0.2,0-0.3,0.1-0.5s0.2-0.3,0.4-0.4c0.2-0.1,0.3-0.2,0.5-0.3
			c0.2-0.1,0.4-0.1,0.7-0.1c0.3,0,0.6,0.1,0.9,0.2s0.5,0.3,0.7,0.5L32.9,8.5z"/>
	</g>
	<g class="st1">
		<path class="st0" d="M14,14.4h1.8c0.3,0,0.6,0,0.8,0.1s0.4,0.2,0.5,0.3c0.1,0.1,0.2,0.3,0.3,0.4c0.1,0.2,0.1,0.3,0.1,0.5
			s0,0.3-0.1,0.5c-0.1,0.2-0.2,0.3-0.3,0.4c-0.1,0.1-0.3,0.2-0.5,0.3S16.1,17,15.8,17H15v1.8h-1L14,14.4L14,14.4z M15,15.1v1.2h0.8
			c0.1,0,0.3,0,0.4,0c0.1,0,0.2-0.1,0.3-0.1c0.1-0.1,0.1-0.1,0.1-0.2s0-0.2,0-0.2c0-0.1,0-0.2,0-0.3s-0.1-0.1-0.1-0.2
			s-0.2-0.1-0.3-0.1s-0.2,0-0.4,0C15.7,15.1,15,15.1,15,15.1z"/>
		<path class="st0" d="M21.1,18.9c-0.3,0-0.6-0.1-0.8-0.2c-0.2-0.1-0.4-0.3-0.6-0.5c-0.2-0.2-0.3-0.5-0.4-0.7
			c-0.1-0.3-0.1-0.6-0.1-0.9c0-0.3,0-0.6,0.1-0.9c0.1-0.3,0.2-0.5,0.4-0.7s0.4-0.4,0.6-0.5c0.2-0.1,0.5-0.2,0.8-0.2
			c0.3,0,0.5,0,0.7,0.1s0.4,0.2,0.6,0.4c0.2,0.2,0.3,0.4,0.4,0.7c0.1,0.3,0.2,0.6,0.2,1c0,0.3,0,0.5-0.1,0.8s-0.1,0.4-0.2,0.6
			s-0.2,0.3-0.3,0.4s-0.3,0.2-0.4,0.3s-0.3,0.1-0.5,0.2C21.4,18.9,21.2,18.9,21.1,18.9z M20.1,16.5c0,0.3,0,0.5,0.1,0.7
			s0.1,0.4,0.2,0.5s0.2,0.2,0.3,0.3s0.3,0.1,0.4,0.1c0.1,0,0.2,0,0.4-0.1s0.2-0.1,0.3-0.3c0.1-0.1,0.2-0.3,0.2-0.5
			c0.1-0.2,0.1-0.5,0.1-0.8c0-0.3,0-0.5-0.1-0.7c-0.1-0.2-0.1-0.4-0.2-0.5c-0.1-0.1-0.2-0.2-0.3-0.3C21.3,15,21.2,15,21.1,15
			c-0.1,0-0.3,0-0.4,0.1s-0.2,0.1-0.3,0.3s-0.2,0.3-0.2,0.5C20.1,16,20.1,16.2,20.1,16.5z"/>
		<path class="st0" d="M24.7,14.4h1.7c0.3,0,0.6,0,0.8,0.1c0.2,0.1,0.4,0.2,0.6,0.3c0.1,0.1,0.3,0.2,0.3,0.4s0.1,0.3,0.1,0.5
			c0,0.1,0,0.2-0.1,0.4c0,0.1-0.1,0.2-0.2,0.3s-0.2,0.2-0.3,0.3c-0.1,0.1-0.3,0.1-0.4,0.2l1.2,1.9h-1.1L26.3,17h-0.6v1.8h-1
			L24.7,14.4L24.7,14.4z M25.7,15.1v1.2h0.8c0.1,0,0.3,0,0.4,0c0.1,0,0.2-0.1,0.3-0.1c0.1-0.1,0.1-0.1,0.1-0.2s0-0.2,0-0.2
			c0-0.2-0.1-0.4-0.2-0.5c-0.1-0.1-0.3-0.1-0.6-0.1L25.7,15.1L25.7,15.1z"/>
		<path class="st0" d="M29.9,14.4h3.9v0.7h-1.5v3.7h-1v-3.7h-1.4L29.9,14.4L29.9,14.4z"/>
	</g>
	<path class="st0" d="M23.2,22.1c-3.8,0-7,3.1-7,7s3.1,7,7,7s7-3.1,7-7S27,22.1,23.2,22.1z M29.2,28.6H27c-0.1-2.1-0.6-3.9-1.5-5.1
		C27.5,24.4,29,26.3,29.2,28.6z M22.7,23.1v5.5h-2.4C20.4,25.9,21.4,23.6,22.7,23.1z M22.7,29.6V35c-1.3-0.5-2.3-2.7-2.4-5.5H22.7z
		 M23.6,35v-5.5H26C25.9,32.3,24.9,34.5,23.6,35z M23.6,28.6v-5.5c1.3,0.5,2.3,2.7,2.4,5.5H23.6z M20.8,23.5c-0.8,1.2-1.4,3-1.5,5.1
		h-2.2C17.3,26.3,18.8,24.4,20.8,23.5z M17.2,29.6h2.2c0.1,2.1,0.6,3.9,1.5,5.1C18.8,33.8,17.3,31.8,17.2,29.6z M25.5,34.6
		c0.8-1.2,1.4-3,1.5-5.1h2.2C29,31.8,27.5,33.8,25.5,34.6z"/>
</g>
</svg>
