<svg id="レイヤー_4" data-name="レイヤー 4" xmlns="http://www.w3.org/2000/svg" viewBox="0 0 48 48"><title>public-photo</title><g id="_グループ_" data-name="&lt;グループ&gt;"><path id="_複合パス_" data-name="&lt;複合パス&gt;" d="M38.437,31.772l-8.2-8.2,7.346-7.346a3,3,0,0,0,.754-2.667,5.221,5.221,0,0,0-1.506-2.818c-1.72-1.72-4.181-2.057-5.485-.752L24,17.335,16.654,9.99a3,3,0,0,0-2.667-.754,5.22,5.22,0,0,0-2.818,1.506c-1.72,1.72-2.058,4.18-.752,5.485l7.346,7.346-8.2,8.2a3,3,0,0,0-.754,2.667,5.5,5.5,0,0,0,4.324,4.324,3.916,3.916,0,0,0,.61.049,2.841,2.841,0,0,0,2.058-.8l8.2-8.2,8.2,8.2a2.842,2.842,0,0,0,2.058.8,3.919,3.919,0,0,0,.61-.049,5.5,5.5,0,0,0,4.324-4.324A3,3,0,0,0,38.437,31.772Zm-5.511,5.511c-.9-.9-.567-2.713.752-4.032s3.128-1.656,4.032-.752.567,2.713-.752,4.032S33.83,38.188,32.926,37.284Zm-8.2-8.2.485-.485,4.555,4.554a.514.514,0,1,0,.727-.727l-4.555-4.554.878-.878.921.921a.514.514,0,0,0,.727-.727l-.921-.921.875-.875a.5.5,0,0,0,.137.433l4.936,4.936a.514.514,0,0,0,.727-.727L29.281,25.1a.5.5,0,0,0-.433-.137l.663-.663,6.683,6.683a5.057,5.057,0,0,0-3.243,1.542,5.222,5.222,0,0,0-1.506,2.818,4,4,0,0,0-.043.417ZM16.59,35.768a5.058,5.058,0,0,0-1.541-3.243,5.057,5.057,0,0,0-3.243-1.541L18.489,24.3l.363-.363.363-.363.727-.727.363-.363.363-.363.636-.636.363-.363.363-.363L24,18.789l.363-.363.363-.363,7.346-7.346c.9-.9,2.713-.567,4.032.752a4.19,4.19,0,0,1,1.217,2.252,2,2,0,0,1-.465,1.78l-7.346,7.346-.363.363-.363.363-1.968,1.968-.363.363-.363.363-.878.878-.363.363-.363.363L24,28.358l-.363.363-.363.363ZM11.143,15.5h0c-.9-.9-.567-2.713.752-4.032a4.19,4.19,0,0,1,2.252-1.217,2,2,0,0,1,1.78.465h0l7.346,7.346-.515.515-6.831-6.831a.514.514,0,0,0-.727.727L22.032,19.3l-.727.727-1.9-1.9a.514.514,0,0,0-.727.727l1.9,1.9-.636.636-6.649-6.649a.514.514,0,0,0-.727.727l6.649,6.649-.727.727Zm-.1,21.03C9.723,35.212,9.385,33.4,10.29,32.5h0a1.852,1.852,0,0,1,1.343-.507,3.989,3.989,0,0,1,2.689,1.259c1.319,1.319,1.656,3.128.752,4.032h0C14.17,38.188,12.361,37.85,11.042,36.531Z" fill="#9e9e9f"/><path id="_パス_" data-name="&lt;パス&gt;" d="M13.233,13.411l3.149,3.149a.514.514,0,0,0,.727-.727l-3.149-3.149-.333-.333a.514.514,0,0,0-.727.727Z" fill="#9e9e9f"/><path id="_パス_2" data-name="&lt;パス&gt;" d="M31.916,32a.514.514,0,0,0,.363-.877l-1.787-1.787a.514.514,0,0,0-.727.727l1.787,1.787A.512.512,0,0,0,31.916,32Z" fill="#9e9e9f"/><path id="_複合パス_2" data-name="&lt;複合パス&gt;" d="M35.543,32.779a2.8,2.8,0,0,0-2.216,2.216,1.667,1.667,0,0,0,.424,1.464,1.6,1.6,0,0,0,1.148.449,2.005,2.005,0,0,0,.316-.025,2.8,2.8,0,0,0,2.216-2.216,1.579,1.579,0,0,0-1.888-1.888Zm-.488,3.089a.562.562,0,0,1-.712-.712A1.78,1.78,0,0,1,35.7,33.794a1.016,1.016,0,0,1,.159-.013.58.58,0,0,1,.418.149.676.676,0,0,1,.135.577,1.78,1.78,0,0,1-1.361,1.361Z" fill="#9e9e9f"/><path id="_パス_3" data-name="&lt;パス&gt;" d="M20.064,25.148l.363-.363.928-.928a.468.468,0,0,0,.324-.324l.583-.583a.514.514,0,0,0-.727-.727l-.381.381-.363.363-.363.363-.727.727-.363.363-.363.363-4.554,4.554a.514.514,0,1,0,.727.727L19.7,25.511Z" fill="#9e9e9f"/><path id="_パス_4" data-name="&lt;パス&gt;" d="M24.485,23.936l.363-.363.727-.727.363-.363.363-.363.515-.515.363-.363.363-.363,1.9-1.9a.514.514,0,0,0-.727-.727l-1.9,1.9-.363.363-.363.363-.515.515-.363.363-.363.363-.727.727-.363.363-.363.363-2.089,2.09-.363.363-.363.363-.921.921a.514.514,0,1,0,.727.727l.921-.921.363-.363.363-.363.512-.512.673-.673.905-.905Z" fill="#9e9e9f"/><path id="_パス_5" data-name="&lt;パス&gt;" d="M24.2,21.283a.515.515,0,0,0,.177-.035.507.507,0,0,0,.186-.116l.228-.228.663-.663.363-.363.363-.363,6.649-6.649a.514.514,0,0,0-.727-.727l-6.649,6.649-.363.363-.363.363-.891.891a.514.514,0,0,0,.363.877Z" fill="#9e9e9f"/><path id="_パス_6" data-name="&lt;パス&gt;" d="M31.013,16.682a.514.514,0,0,0,.727,0L35.222,13.2a.514.514,0,0,0-.727-.727l-3.482,3.482A.514.514,0,0,0,31.013,16.682Z" fill="#9e9e9f"/><path id="_パス_7" data-name="&lt;パス&gt;" d="M22.474,28.128a.537.537,0,0,0-.727,0l-4.936,4.936a.514.514,0,1,0,.727.727l4.936-4.936a.537.537,0,0,0,0-.727Z" fill="#9e9e9f"/><path id="_パス_8" data-name="&lt;パス&gt;" d="M24.078,27.037a.51.51,0,0,0,.233-.064.5.5,0,0,0,.131-.087l.255-.255.878-.878.363-.363.363-.363.23-.23a.514.514,0,0,0-.727-.727l-.23.23-.363.363-.363.363-.878.878-.255.255a.5.5,0,0,0-.087.131.507.507,0,0,0,.45.747Z" fill="#9e9e9f"/><path id="_パス_9" data-name="&lt;パス&gt;" d="M28.27,21.605l-.194.194a.5.5,0,0,0-.122.217.506.506,0,0,0,.485.661.516.516,0,0,0,.147-.029.5.5,0,0,0,.217-.122L29,22.332,35.827,15.5a.514.514,0,0,0-.727-.727Z" fill="#9e9e9f"/><path id="_パス_10" data-name="&lt;パス&gt;" d="M18.234,29.339a.514.514,0,0,0-.727,0l-1.787,1.787a.514.514,0,1,0,.727.727l1.787-1.787A.514.514,0,0,0,18.234,29.339Z" fill="#9e9e9f"/><path id="_複合パス_3" data-name="&lt;複合パス&gt;" d="M14.025,33.669a2.673,2.673,0,0,0-1.447-.769,1.663,1.663,0,0,0-1.464.424h0a1.667,1.667,0,0,0-.424,1.464A2.8,2.8,0,0,0,12.907,37a2,2,0,0,0,.315.025,1.6,1.6,0,0,0,1.148-.449h0a1.667,1.667,0,0,0,.424-1.464A2.673,2.673,0,0,0,14.025,33.669Zm-.959,2.319a1.781,1.781,0,0,1-1.361-1.361.676.676,0,0,1,.135-.577h0a.579.579,0,0,1,.418-.149,1.016,1.016,0,0,1,.159.013,1.78,1.78,0,0,1,1.361,1.361.675.675,0,0,1-.135.577h0A.676.676,0,0,1,13.067,35.988Z" fill="#9e9e9f"/></g></svg>