<svg id="レイヤー_4" data-name="レイヤー 4" xmlns="http://www.w3.org/2000/svg" viewBox="0 0 48 48"><title>user_default</title><path d="M24,10.777c-4.249,0-7.689,3.826-7.689,8.528a9.114,9.114,0,0,0,1.6,5.2,10.19,10.19,0,0,1,12.185,0,9.107,9.107,0,0,0,1.6-5.2C31.695,14.6,28.253,10.777,24,10.777Z" fill="#9e9e9f"/><path d="M47.89,24A23.89,23.89,0,1,0,10.428,43.645v.006l.012,0a23.819,23.819,0,0,0,27.119,0l.011,0v-.005A23.877,23.877,0,0,0,47.89,24ZM37.749,41.223v-.038c0-8.416-6.155-15.241-13.752-15.241S10.25,32.769,10.25,41.185v.038a22.052,22.052,0,1,1,27.5,0Z" fill="#9e9e9f"/></svg>