<?xml version="1.0" encoding="utf-8"?>
<!-- Generator: Adobe Illustrator 19.2.1, SVG Export Plug-In . SVG Version: 6.00 Build 0)  -->
<svg version="1.1" id="レイヤー_1" xmlns="http://www.w3.org/2000/svg" xmlns:xlink="http://www.w3.org/1999/xlink" x="0px"
	 y="0px" viewBox="0 0 170 46" style="enable-background:new 0 0 170 46;" xml:space="preserve">
<style type="text/css">
	.st0{fill:#9E9E9F;}
	.st1{fill:#4EB5A2;}
</style>
<polygon class="st0" points="10.9,3.3 22.7,3.3 14.3,17.1 24.2,16.6 0,43.3 11.4,24 3,24 "/>
<polygon class="st0" points="41.9,3.3 53.7,3.3 45.3,17.1 55.2,16.6 31,43.3 42.4,24 34,24 "/>
<polygon class="st0" points="72.9,3.3 84.7,3.3 76.3,17.1 86.2,16.6 62,43.3 73.4,24 65,24 "/>
<polygon class="st0" points="103.9,3.3 115.7,3.3 107.3,17.1 117.2,16.6 93,43.3 104.4,24 96,24 "/>
<polygon class="st0" points="134.9,3.3 146.7,3.3 138.3,17.1 148.2,16.6 124,43.3 135.4,24 127,24 "/>
<polygon class="st1" points="-153.5,39.2 -156,43.3 -152.2,39.2 "/>
<polygon class="st1" points="-144.7,35.2 -149.5,43.3 -142.1,35.2 "/>
<polygon class="st1" points="-135,31.2 -142.1,43.3 -131.2,31.2 "/>
<polygon class="st1" points="-124.2,27.2 -133.7,43.3 -119.1,27.2 "/>
<polygon class="st1" points="-114.8,23.2 -115.1,24 -106.7,24 -118.1,43.3 -99.9,23.2 "/>
<polygon class="st1" points="-75.4,19.2 -92.4,19.2 -94.3,24 -85.9,24 -97.3,43.3 "/>
<polygon class="st1" points="-60,15.2 -69.1,15.2 -72.4,24 -64,24 -75.4,43.3 -51.2,16.6 -61.1,17.1 "/>
<polygon class="st1" points="48.9,11.2 38.9,11.2 34,24 42.4,24 31,43.3 55.2,16.6 45.3,17.1 "/>
<polygon class="st1" points="-7.4,7.2 -18.3,7.2 -24.7,24 -16.3,24 -27.7,43.3 -3.5,16.6 -13.4,17.1 "/>
<polygon class="st1" points="10.9,3.3 22.7,3.3 14.3,17.1 24.2,16.6 0,43.3 11.4,24 3,24 "/>
</svg>
