<?xml version="1.0" encoding="utf-8"?>
<!-- Generator: Adobe Illustrator 19.2.1, SVG Export Plug-In . SVG Version: 6.00 Build 0)  -->
<svg version="1.1" id="レイヤー_1" xmlns="http://www.w3.org/2000/svg" xmlns:xlink="http://www.w3.org/1999/xlink" x="0px"
	 y="0px" viewBox="0 0 170 46" style="enable-background:new 0 0 170 46;" xml:space="preserve">
<style type="text/css">
	.st0{fill:#4EB5A2;}
	.st1{fill:#9E9E9F;}
</style>
<polygon class="st0" points="41.9,3.3 53.7,3.3 45.3,17.1 55.2,16.6 31,43.3 42.4,24 34,24 "/>
<polygon class="st0" points="72.9,3.3 84.7,3.3 76.3,17.1 86.2,16.6 62,43.3 73.4,24 65,24 "/>
<polygon class="st1" points="103.9,3.3 115.7,3.3 107.3,17.1 117.2,16.6 93,43.3 104.4,24 96,24 "/>
<polygon class="st1" points="134.9,3.3 146.7,3.3 138.3,17.1 148.2,16.6 124,43.3 135.4,24 127,24 "/>
<polygon class="st0" points="114.9,19.2 97.8,19.2 96,24 104.4,24 93,43.3 "/>
<polygon class="st0" points="10.9,3.3 22.7,3.3 14.3,17.1 24.2,16.6 0,43.3 11.4,24 3,24 "/>
</svg>
